<svg width="79" height="20" viewBox="0 0 79 20" fill="none" xmlns="http://www.w3.org/2000/svg">
<path fill-rule="evenodd" clip-rule="evenodd" d="M6.89307 4.70703H12.2914C15.1898 4.70703 16.2809 6.24034 16.1123 8.49298C15.8336 12.2119 13.6821 14.2695 10.8282 14.2695H9.38739C8.99582 14.2695 8.73245 14.5403 8.62655 15.2742L8.01482 19.5407C7.97441 19.8173 7.83506 19.9775 7.62604 19.9993H4.23433C3.91523 19.9993 3.80236 19.7445 3.88597 19.1926L5.95388 5.51519C6.0347 4.96768 6.32175 4.70703 6.89307 4.70703Z" fill="#009EE3"/>
<path fill-rule="evenodd" clip-rule="evenodd" d="M30.3295 4.45508C32.1508 4.45508 33.8313 5.48748 33.6014 8.06047C33.3227 11.1183 31.7551 12.8104 29.2816 12.8177H27.1204C26.8096 12.8177 26.6591 13.0827 26.5783 13.6258L26.1603 16.4027C26.0976 16.822 25.8913 17.0288 25.5876 17.0288H23.5768C23.2563 17.0288 23.1448 16.8147 23.2159 16.3357L24.8755 5.20644C24.9577 4.65894 25.1542 4.45508 25.5123 4.45508H30.3254H30.3295ZM27.0549 10.4136H28.6922C29.7164 10.3728 30.3964 9.63163 30.4647 8.2949C30.5065 7.46927 29.9728 6.87808 29.1242 6.88245L27.583 6.88973L27.0549 10.4136ZM39.068 16.177C39.2519 16.0022 39.4386 15.9119 39.4122 16.1274L39.3467 16.6429C39.3132 16.9123 39.415 17.055 39.6546 17.055H41.4411C41.7421 17.055 41.8884 16.9283 41.9622 16.442L43.0631 9.22246C43.1188 8.85988 43.0338 8.68223 42.7704 8.68223H40.8056C40.6287 8.68223 40.5423 8.78562 40.4963 9.06811L40.4238 9.51223C40.3862 9.74375 40.2845 9.78453 40.1897 9.55155C39.8567 8.72737 39.0067 8.35752 37.8208 8.38664C35.0659 8.44634 33.2084 10.632 33.0092 13.4336C32.8559 15.6003 34.3413 17.3025 36.3006 17.3025C37.7219 17.3025 38.3573 16.8657 39.0736 16.1813L39.068 16.177ZM37.5714 15.0659C36.3856 15.0659 35.5592 14.0772 35.7306 12.8657C35.902 11.6542 37.0112 10.6655 38.1971 10.6655C39.3829 10.6655 40.2092 11.6542 40.0378 12.8657C39.8664 14.0772 38.7586 15.0659 37.5714 15.0659ZM46.5593 8.65894H44.7478C44.3743 8.65894 44.2224 8.95016 44.3409 9.30837L46.5899 16.1901L44.3841 19.4649C44.1987 19.7387 44.3423 19.9877 44.6028 19.9877H46.6387C46.7574 20.002 46.8775 19.9804 46.9847 19.9254C47.0919 19.8704 47.1817 19.7843 47.2435 19.6775L54.1607 9.30983C54.3739 8.99093 54.2735 8.65602 53.9238 8.65602H51.9966C51.6663 8.65602 51.534 8.7929 51.3445 9.07976L48.46 13.4482L47.171 9.06957C47.0958 8.80455 46.9076 8.65894 46.5607 8.65894H46.5593Z" fill="#1A56C5"/>
<path fill-rule="evenodd" clip-rule="evenodd" d="M61.3574 4.45409C63.1787 4.45409 64.8592 5.48649 64.6293 8.05948C64.3506 11.1174 62.783 12.8094 60.3096 12.8167H58.1497C57.8389 12.8167 57.6884 13.0817 57.6076 13.6248L57.1896 16.4017C57.1269 16.821 56.9206 17.0278 56.6169 17.0278H54.6061C54.2856 17.0278 54.1741 16.8138 54.2452 16.3347L55.9076 5.20254C55.9898 4.65503 56.1863 4.45117 56.5444 4.45117H61.3574V4.45409ZM58.0828 10.4126H59.7201C60.7443 10.3718 61.4243 9.63064 61.4926 8.29391C61.5344 7.46828 61.0007 6.87709 60.1521 6.88146L58.6109 6.88874L58.0828 10.4126ZM70.0959 16.176C70.2798 16.0012 70.4665 15.911 70.4401 16.1265L70.3746 16.6419C70.3411 16.9113 70.4429 17.054 70.6825 17.054H72.469C72.77 17.054 72.9163 16.9273 72.9901 16.441L74.091 9.22147C74.1467 8.85889 74.0617 8.68124 73.7983 8.68124H71.8363C71.6594 8.68124 71.573 8.78463 71.527 9.06712L71.4545 9.51124C71.4169 9.74276 71.3152 9.78354 71.2204 9.55056C70.8874 8.72639 70.0374 8.35653 68.8515 8.38565C66.0966 8.44535 64.2391 10.631 64.0399 13.4326C63.8866 15.5993 65.372 17.3016 67.3312 17.3016C68.7526 17.3016 69.388 16.8647 70.1042 16.1803L70.0959 16.176ZM68.6007 15.0649C67.4149 15.0649 66.5885 14.0762 66.7599 12.8647C66.9313 11.6532 68.0405 10.6645 69.2264 10.6645C70.4122 10.6645 71.2385 11.6532 71.0671 12.8647C70.8957 14.0762 69.7865 15.0649 68.6007 15.0649ZM76.8403 17.0657H74.7779C74.7421 17.0673 74.7063 17.0607 74.6732 17.0463C74.64 17.0318 74.6103 17.0099 74.5862 16.9821C74.5621 16.9543 74.5442 16.9212 74.5338 16.8853C74.5233 16.8494 74.5206 16.8116 74.5257 16.7744L76.3372 4.78172C76.3545 4.69987 76.3978 4.62654 76.4601 4.57367C76.5223 4.52079 76.5998 4.49148 76.68 4.49049H78.7424C78.7782 4.48881 78.814 4.49543 78.8472 4.50988C78.8803 4.52433 78.91 4.54625 78.9341 4.57407C78.9582 4.60189 78.9761 4.63493 78.9865 4.67082C78.997 4.70672 78.9998 4.74459 78.9946 4.78172L77.1831 16.7744C77.1663 16.8568 77.1233 16.9308 77.061 16.9843C76.9987 17.0377 76.9209 17.0674 76.8403 17.0686V17.0657Z" fill="#009EE3"/>
<path fill-rule="evenodd" clip-rule="evenodd" d="M3.51688 0H8.92076C10.4424 0 12.2484 0.0509647 13.4551 1.16491C14.2619 1.90899 14.6855 3.09283 14.588 4.3684C14.2564 8.68001 11.7885 11.0957 8.47764 11.0957H5.81332C5.35905 11.0957 5.05945 11.4103 4.93125 12.2606L4.18714 17.2115C4.13837 17.5318 4.00599 17.7211 3.7691 17.7444H0.434528C0.0652589 17.7444 -0.0657285 17.4532 0.0304209 16.8096L2.42719 0.940661C2.52334 0.302875 2.85917 0 3.51688 0Z" fill="#1A56C5"/>
<path fill-rule="evenodd" clip-rule="evenodd" d="M5.00977 11.7591L5.95315 5.51665C6.03536 4.96914 6.32242 4.70703 6.89374 4.70703H12.292C13.1853 4.70703 13.9085 4.85265 14.4742 5.12203C13.9322 8.9604 11.5563 11.0922 8.44606 11.0922H5.78593C5.4292 11.0936 5.16723 11.28 5.00977 11.7591Z" fill="#1E3990"/>
</svg>
