<?xml version="1.0" encoding="UTF-8" standalone="no"?>
<svg
   xmlns:dc="http://purl.org/dc/elements/1.1/"
   xmlns:cc="http://creativecommons.org/ns#"
   xmlns:rdf="http://www.w3.org/1999/02/22-rdf-syntax-ns#"
   xmlns:svg="http://www.w3.org/2000/svg"
   xmlns="http://www.w3.org/2000/svg"
   viewBox="0 0 288 93.013336"
   height="93.013336"
   width="288"
   xml:space="preserve"
   id="svg2"
   version="1.1"><metadata
     id="metadata8"><rdf:RDF><cc:Work
         rdf:about=""><dc:format>image/svg+xml</dc:format><dc:type
           rdf:resource="http://purl.org/dc/dcmitype/StillImage" /></cc:Work></rdf:RDF></metadata><defs
     id="defs6"><clipPath
       id="clipPath20"
       clipPathUnits="userSpaceOnUse"><path
         id="path18"
         d="M 1069.49,685.242 925.16,10.5508 H 750.602 L 894.984,685.242 Z m 734.32,-435.633 91.88,253.329 52.89,-253.329 z M 1998.57,10.5508 H 2160 L 2019.09,685.242 h -148.97 c -33.51,0 -61.76,-19.469 -74.3,-49.48 L 1533.93,10.5508 h 183.23 l 36.41,100.7972 h 223.91 z M 1543,230.852 c 0.78,178.043 -246.22,187.878 -244.52,267.433 0.54,24.192 23.58,49.914 74.03,56.504 24.97,3.258 93.94,5.785 172.07,-30.176 l 30.67,143.055 c -42.03,15.258 -96.04,29.914 -163.3,29.914 -172.5,0 -293.94,-91.719 -294.91,-223.016 -1.15,-97.171 86.66,-151.324 152.82,-183.632 67.97,-33.063 90.77,-54.274 90.52,-83.84 -0.51,-45.293 -54.24,-65.254 -104.47,-66.039 -87.75,-1.364 -138.68,23.718 -179.26,42.633 L 1045.05,35.8359 C 1085.79,17.125 1161.07,0.800781 1239.14,0 1422.51,0 1542.43,90.543 1543,230.852 M 820.09,685.242 537.301,10.5508 H 352.813 L 213.648,549.004 c -8.453,33.148 -15.777,45.316 -41.464,59.258 C 130.23,631.055 60.9492,652.414 0,665.68 l 4.11328,19.562 H 301.117 c 37.832,0 71.891,-25.168 80.485,-68.777 l 73.5,-390.434 181.656,459.211 z" /></clipPath><linearGradient
       id="linearGradient26"
       spreadMethod="pad"
       gradientTransform="matrix(2160,0,0,-2160,0,348.789)"
       gradientUnits="userSpaceOnUse"
       y2="0"
       x2="1"
       y1="0"
       x1="0"><stop
         id="stop22"
         offset="0"
         style="stop-opacity:1;stop-color:#222357" /><stop
         id="stop24"
         offset="1"
         style="stop-opacity:1;stop-color:#254aa5" /></linearGradient></defs><g
     transform="matrix(1.3333333,0,0,-1.3333333,0,93.013333)"
     id="g10"><g
       transform="scale(0.1)"
       id="g12"><g
         id="g14"><g
           clip-path="url(#clipPath20)"
           id="g16"><path
             id="path28"
             style="fill:url(#linearGradient26);fill-opacity:1;fill-rule:nonzero;stroke:none"
             d="M 1069.49,685.242 925.16,10.5508 H 750.602 L 894.984,685.242 Z m 734.32,-435.633 91.88,253.329 52.89,-253.329 z M 1998.57,10.5508 H 2160 L 2019.09,685.242 h -148.97 c -33.51,0 -61.76,-19.469 -74.3,-49.48 L 1533.93,10.5508 h 183.23 l 36.41,100.7972 h 223.91 z M 1543,230.852 c 0.78,178.043 -246.22,187.878 -244.52,267.433 0.54,24.192 23.58,49.914 74.03,56.504 24.97,3.258 93.94,5.785 172.07,-30.176 l 30.67,143.055 c -42.03,15.258 -96.04,29.914 -163.3,29.914 -172.5,0 -293.94,-91.719 -294.91,-223.016 -1.15,-97.171 86.66,-151.324 152.82,-183.632 67.97,-33.063 90.77,-54.274 90.52,-83.84 -0.51,-45.293 -54.24,-65.254 -104.47,-66.039 -87.75,-1.364 -138.68,23.718 -179.26,42.633 L 1045.05,35.8359 C 1085.79,17.125 1161.07,0.800781 1239.14,0 1422.51,0 1542.43,90.543 1543,230.852 M 820.09,685.242 537.301,10.5508 H 352.813 L 213.648,549.004 c -8.453,33.148 -15.777,45.316 -41.464,59.258 C 130.23,631.055 60.9492,652.414 0,665.68 l 4.11328,19.562 H 301.117 c 37.832,0 71.891,-25.168 80.485,-68.777 l 73.5,-390.434 181.656,459.211 H 820.09" /></g></g></g></g></svg>