<svg width="33" height="32" viewBox="0 0 33 32" fill="none" xmlns="http://www.w3.org/2000/svg">
<path d="M0.25 9.6C0.25 6.23969 0.25 4.55953 0.903961 3.27606C1.4792 2.14708 2.39708 1.2292 3.52606 0.653961C4.80953 0 6.48969 0 9.85 0H22.65C26.0103 0 27.6905 0 28.9739 0.653961C30.1029 1.2292 31.0208 2.14708 31.596 3.27606C32.25 4.55953 32.25 6.23969 32.25 9.6V22.4C32.25 25.7603 32.25 27.4405 31.596 28.7239C31.0208 29.8529 30.1029 30.7708 28.9739 31.346C27.6905 32 26.0103 32 22.65 32H9.85C6.48969 32 4.80953 32 3.52606 31.346C2.39708 30.7708 1.4792 29.8529 0.903961 28.7239C0.25 27.4405 0.25 25.7603 0.25 22.4V9.6Z" fill="url(#paint0_linear_637_9426)"/>
<path d="M0.75 9.6C0.75 7.91159 0.750389 6.67536 0.830085 5.69993C0.909303 4.73034 1.06438 4.06255 1.34946 3.50305C1.87677 2.46816 2.71816 1.62677 3.75305 1.09946C4.31255 0.814384 4.98034 0.659303 5.94993 0.580085C6.92536 0.500389 8.16159 0.5 9.85 0.5H22.65C24.3384 0.5 25.5746 0.500389 26.5501 0.580085C27.5197 0.659303 28.1874 0.814384 28.7469 1.09946C29.7818 1.62677 30.6232 2.46816 31.1505 3.50305C31.4356 4.06255 31.5907 4.73034 31.6699 5.69993C31.7496 6.67536 31.75 7.91159 31.75 9.6V22.4C31.75 24.0884 31.7496 25.3246 31.6699 26.3001C31.5907 27.2697 31.4356 27.9374 31.1505 28.4969C30.6232 29.5318 29.7818 30.3732 28.7469 30.9005C28.1874 31.1856 27.5197 31.3407 26.5501 31.4199C25.5746 31.4996 24.3384 31.5 22.65 31.5H9.85C8.16159 31.5 6.92536 31.4996 5.94993 31.4199C4.98034 31.3407 4.31255 31.1856 3.75305 30.9005C2.71816 30.3732 1.87677 29.5318 1.34946 28.4969C1.06438 27.9374 0.909303 27.2697 0.830085 26.3001C0.750389 25.3246 0.75 24.0884 0.75 22.4V9.6Z" stroke="white" stroke-opacity="0.2"/>
<path d="M10.6561 23.2966L10.6591 23.2976L9.5795 25.1675C9.18544 25.8501 8.3126 26.0839 7.63003 25.6898C6.9475 25.2958 6.71363 24.423 7.10769 23.7404L7.97932 22.2307C8.11563 22.0347 8.452 21.6967 9.12485 21.7602C9.86644 21.8407 11.2895 22.3556 10.6561 23.2966ZM25.9686 18.5206H22.602C22.3727 18.5053 22.2726 18.4234 22.2333 18.3758L22.2308 18.3715L18.6269 12.1295L18.6223 12.1326L18.4061 11.8227C18.0519 11.281 17.4895 12.6664 17.4895 12.6664C16.8179 14.2101 17.5848 15.9653 17.8522 16.4958L22.8577 25.1656C23.2517 25.8481 24.1245 26.082 24.8071 25.6879C25.4896 25.2939 25.7235 24.421 25.3294 23.7385L24.0778 21.5705C24.0535 21.518 24.0113 21.3754 24.268 21.3748H25.9686C26.7567 21.3748 27.3957 20.7359 27.3957 19.9477C27.3957 19.1596 26.7567 18.5206 25.9686 18.5206ZM19.4296 20.4607C19.4296 20.4607 19.6093 21.3748 18.9139 21.3748H18.2186L6.4686 21.3748C5.68044 21.3748 5.0415 20.7359 5.0415 19.9477C5.0415 19.1596 5.68044 18.5206 6.4686 18.5206H9.66816C10.1847 18.4907 10.3072 18.1925 10.3072 18.1925L10.31 18.1939L14.4865 10.96L14.4853 10.9597C14.5614 10.82 14.498 10.688 14.487 10.6671L13.1077 8.27808C12.7136 7.59552 12.9475 6.72271 13.63 6.32865C14.3126 5.93455 15.1854 6.16843 15.5795 6.85099L16.2192 7.95899L16.8577 6.85296C17.2518 6.1704 18.1246 5.93652 18.8072 6.33062C19.4897 6.72471 19.7236 7.59752 19.3295 8.28005L13.5178 18.3462C13.4924 18.4075 13.4846 18.5037 13.6737 18.5206H17.1476H17.1483C17.1483 18.5206 19.1561 18.5857 19.4296 20.4607Z" fill="white"/>
<defs>
<linearGradient id="paint0_linear_637_9426" x1="16.25" y1="32" x2="16.25" y2="0" gradientUnits="userSpaceOnUse">
<stop stop-color="#1D76F2"/>
<stop offset="1" stop-color="#1AC2FB"/>
</linearGradient>
</defs>
</svg>
