<svg width="336" height="168" viewBox="0 0 336 168" fill="none" xmlns="http://www.w3.org/2000/svg">
<path d="M190.653 21H146.386C141.451 21 137.45 24.9838 137.45 29.8981V37.541H137.303C137.135 37.541 137 37.6759 137 37.8422V42.193C137 42.3594 137.135 42.4942 137.303 42.4942H137.45V46.7782H137.303C137.135 46.7782 137 46.9123 137 47.0792V55.7027C137 55.8696 137.135 56.004 137.303 56.004H137.45V58.3802H137.303C137.135 58.3802 137 58.5143 137 58.6812V67.3047C137 67.4716 137.135 67.606 137.303 67.606H137.45V138.102C137.45 143.016 141.451 147 146.386 147H190.653C195.589 147 199.59 143.016 199.59 138.102V64.3856H199.697C199.865 64.3856 200 64.2512 200 64.0843V50.0967C200 49.9298 199.865 49.7957 199.697 49.7957H199.59V29.8981C199.59 24.9838 195.589 21 190.653 21Z" fill="#7A00DA"/>
<path d="M140.674 29.8631C140.674 26.7235 143.213 24.196 146.366 24.196H151.934H184.888H190.456C193.609 24.196 196.147 26.7235 196.147 29.8631V138.214C196.147 141.354 193.609 143.881 190.456 143.881H146.366C143.213 143.881 140.674 141.354 140.674 138.214V29.8631Z" fill="white"/>
<path d="M140.674 29.8631C140.674 26.7235 143.213 24.196 146.366 24.196H151.934H184.888H190.456C193.609 24.196 196.147 26.7235 196.147 29.8631V138.214C196.147 141.354 193.609 143.881 190.456 143.881H146.366C143.213 143.881 140.674 141.354 140.674 138.214V29.8631Z" stroke="white"/>
<rect x="149" y="33" width="39" height="4" rx="2" fill="#FF8833"/>
<rect x="149" y="39" width="31" height="4" rx="2" fill="#FF8833"/>
<rect x="149" y="55" width="31" height="4" rx="2" fill="#FF8833"/>
<rect x="149" y="67" width="15" height="4" rx="2" fill="#FF8833"/>
<rect x="149" y="61" width="39" height="4" rx="2" fill="#FF8833"/>
<rect x="149" y="83" width="31" height="4" rx="2" fill="#FF8833"/>
<rect x="149" y="111" width="31" height="4" rx="2" fill="#FF8833"/>
<rect x="149" y="95" width="23" height="4" rx="2" fill="#FF8833"/>
<rect x="149" y="123" width="23" height="4" rx="2" fill="#FF8833"/>
<rect x="149" y="89" width="39" height="4" rx="2" fill="#FF8833"/>
<rect x="149" y="117" width="39" height="4" rx="2" fill="#FF8833"/>
</svg>
