<svg width="327" height="180" viewBox="0 0 327 180" fill="none" xmlns="http://www.w3.org/2000/svg">
<rect x="69.438" y="29" width="188.125" height="36" rx="8" fill="white"/>
<rect x="68.938" y="28.5" width="189.125" height="37" rx="8.5" stroke="#0066FF" stroke-opacity="0.2"/>
<rect x="50.7197" y="41" width="225.562" height="28" rx="8" fill="white"/>
<rect x="50.2197" y="40.5" width="226.562" height="29" rx="8.5" stroke="#0066FF" stroke-opacity="0.2"/>
<rect x="32" y="53" width="263" height="98" rx="8" fill="white"/>
<path fill-rule="evenodd" clip-rule="evenodd" d="M65.3688 80.0455C65.871 79.3927 66.9059 79.9092 66.6861 80.703L64.25 89.5H70.2268C70.8491 89.5 71.2007 90.2141 70.8213 90.7073L60.6311 103.955C60.1289 104.607 59.094 104.091 59.3139 103.297L61.75 94.5H55.7731C55.1509 94.5 54.7992 93.786 55.1786 93.2928L65.3688 80.0455Z" fill="#0066FF"/>
<rect x="87" y="77" width="172" height="10" rx="4" fill="#0066FF" fill-opacity="0.2"/>
<rect x="87" y="97" width="188" height="10" rx="4" fill="#0066FF" fill-opacity="0.2"/>
<rect x="87" y="117" width="142" height="10" rx="4" fill="#0066FF" fill-opacity="0.2"/>
<rect x="31.5" y="52.5" width="264" height="99" rx="8.5" stroke="#0066FF" stroke-opacity="0.2"/>
</svg>
