<svg width="327" height="180" viewBox="0 0 327 180" fill="none" xmlns="http://www.w3.org/2000/svg">
<rect x="34.4189" y="77.135" width="260.581" height="79.4221" rx="9.65204" transform="rotate(2 34.4189 77.135)" fill="white"/>
<rect x="33.9576" y="76.6403" width="261.537" height="80.3788" rx="10.1304" transform="rotate(2 33.9576 76.6403)" stroke="#00BB77" stroke-opacity="0.2" stroke-width="0.956666"/>
<rect x="24" y="88.4388" width="275.887" height="79.4221" rx="9.65204" transform="rotate(-3 24 88.4388)" fill="white"/>
<circle cx="57.1236" cy="130.374" r="12.065" transform="rotate(-3 57.1236 130.374)" fill="#00BB77"/>
<circle cx="57.1236" cy="130.374" r="11.2607" transform="rotate(-3 57.1236 130.374)" stroke="#00BB77" stroke-opacity="0.2" stroke-width="1.60867"/>
<path d="M53.2985 127.725L53.6659 134.735L54.8844 134.672L54.6315 129.845L54.6965 129.842L56.8857 134.546L57.7962 134.498L59.4822 129.601L59.5473 129.598L59.7997 134.414L61.0182 134.35L60.6508 127.34L59.0968 127.421L57.2819 132.61L57.1998 132.614L54.8525 127.644L53.2985 127.725Z" fill="white"/>
<circle cx="92.4658" cy="128.522" r="12.065" transform="rotate(-3 92.4658 128.522)" fill="#00BB77"/>
<circle cx="92.4658" cy="128.522" r="11.2607" transform="rotate(-3 92.4658 128.522)" stroke="#00BB77" stroke-opacity="0.2" stroke-width="1.60867"/>
<path d="M89.5743 126.892L91.741 126.778L92.0526 132.724L93.3122 132.658L93.0006 126.712L95.1673 126.599L95.1115 125.534L89.5185 125.827L89.5743 126.892Z" fill="white"/>
<circle cx="127.808" cy="126.67" r="12.065" transform="rotate(-3 127.808 126.67)" fill="#00BB77"/>
<circle cx="127.808" cy="126.67" r="11.2607" transform="rotate(-3 127.808 126.67)" stroke="#00BB77" stroke-opacity="0.2" stroke-width="1.60867"/>
<path d="M125.341 130.979L126.594 130.913L127.743 125.921L127.798 125.918L129.459 130.763L130.711 130.698L132.322 123.584L130.957 123.655L129.964 128.876L129.902 128.88L128.28 123.796L127.038 123.861L125.959 129.083L125.894 129.086L124.361 124.001L122.995 124.073L125.341 130.979Z" fill="white"/>
<circle cx="163.15" cy="124.818" r="11.2607" transform="rotate(-3 163.15 124.818)" stroke="#00BB77" stroke-opacity="0.2" stroke-width="1.60867"/>
<path d="M162.561 113.57C162.538 113.128 162.878 112.748 163.321 112.754C165.507 112.785 167.649 113.409 169.514 114.568C171.608 115.867 173.253 117.777 174.229 120.04C175.205 122.302 175.465 124.81 174.973 127.224C174.535 129.376 173.519 131.363 172.041 132.974C171.742 133.3 171.232 133.286 170.926 132.966C170.62 132.645 170.635 132.14 170.931 131.81C172.173 130.428 173.028 128.735 173.401 126.904C173.827 124.811 173.602 122.637 172.756 120.675C171.91 118.713 170.483 117.058 168.668 115.931C167.081 114.945 165.263 114.405 163.405 114.36C162.962 114.349 162.584 114.013 162.561 113.57Z" fill="#00BB77"/>
<path d="M160.259 123.187L162.426 123.074L162.737 129.019L163.997 128.953L163.685 123.008L165.852 122.894L165.796 121.83L160.203 122.123L160.259 123.187Z" fill="#00BB77"/>
<rect x="152.07" y="143.924" width="24.1301" height="1.60867" rx="0.804337" transform="rotate(-3 152.07 143.924)" fill="#00BB77"/>
<circle cx="198.493" cy="122.966" r="11.2607" transform="rotate(-3 198.493 122.966)" stroke="#00BB77" stroke-opacity="0.2" stroke-width="1.60867"/>
<path d="M196.578 127.246L197.848 127.179L197.692 124.201L200.605 124.049L200.549 122.984L197.637 123.137L197.537 121.234L200.758 121.065L200.702 120L196.211 120.236L196.578 127.246Z" fill="#00BB77"/>
<circle cx="233.835" cy="121.113" r="11.2607" transform="rotate(-3 233.835 121.113)" stroke="#00BB77" stroke-opacity="0.2" stroke-width="1.60867"/>
<path d="M235.158 120.127L236.38 120.063C236.294 118.88 235.241 118.094 233.748 118.172C232.276 118.249 231.214 119.136 231.283 120.375C231.335 121.381 232.081 121.922 233.25 122.159L234.058 122.323C234.825 122.475 235.337 122.685 235.369 123.229C235.397 123.828 234.85 124.258 234.021 124.302C233.227 124.343 232.593 124.02 232.503 123.286L231.253 123.352C231.378 124.742 232.456 125.472 234.089 125.386C235.769 125.298 236.701 124.408 236.639 123.173C236.572 121.958 235.54 121.456 234.473 121.261L233.807 121.131C233.225 121.024 232.589 120.814 232.565 120.228C232.541 119.701 232.993 119.29 233.787 119.248C234.544 119.208 235.062 119.535 235.158 120.127Z" fill="#00BB77"/>
<circle cx="269.177" cy="119.261" r="11.2607" transform="rotate(-3 269.177 119.261)" stroke="#00BB77" stroke-opacity="0.2" stroke-width="1.60867"/>
<path d="M270.501 118.275L271.723 118.211C271.637 117.028 270.583 116.242 269.091 116.32C267.619 116.397 266.557 117.283 266.625 118.522C266.678 119.529 267.423 120.07 268.592 120.307L269.401 120.471C270.167 120.623 270.679 120.833 270.711 121.377C270.739 121.976 270.192 122.406 269.364 122.45C268.57 122.491 267.935 122.167 267.845 121.434L266.596 121.5C266.72 122.89 267.798 123.62 269.431 123.534C271.111 123.446 272.043 122.556 271.982 121.32C271.915 120.105 270.883 119.604 269.815 119.409L269.149 119.279C268.567 119.172 267.932 118.962 267.908 118.376C267.884 117.849 268.336 117.437 269.13 117.396C269.886 117.356 270.404 117.682 270.501 118.275Z" fill="#00BB77"/>
<rect x="23.4973" y="87.9862" width="276.844" height="80.3788" rx="10.1304" transform="rotate(-3 23.4973 87.9862)" stroke="#00BB77" stroke-opacity="0.2" stroke-width="0.956666"/>
<circle cx="184.982" cy="59.5247" r="43.2416" transform="rotate(6 184.982 59.5247)" fill="#0066FF"/>
<circle cx="184.982" cy="59.5247" r="44.2472" transform="rotate(6 184.982 59.5247)" stroke="#0066FF" stroke-opacity="0.2" stroke-width="2.01124"/>
<path d="M164.471 45.0358L161.869 44.7623L158.412 46.4737L158.154 48.9285L161.35 47.3642L161.427 47.3722L160.327 57.8372L163.095 58.1281L164.471 45.0358ZM170.97 59.1367C173.885 59.4431 176.066 57.7528 176.338 55.1055C176.608 52.6002 175.045 50.6134 172.687 50.3654C171.536 50.2445 170.495 50.6198 169.966 51.2171L169.89 51.209L170.573 47.9652L176.295 48.5665L176.533 46.3035L168.529 45.4622L167.183 52.3012L169.598 53.001C170.058 52.5 170.873 52.2431 171.647 52.3244C172.963 52.4692 173.809 53.5212 173.665 54.8956C173.522 56.2573 172.496 57.0996 171.198 56.9632C170.099 56.8476 169.283 56.0638 169.325 55.0407L166.64 54.7585C166.454 57.0269 168.259 58.8518 170.97 59.1367ZM182.002 60.1153L184.725 60.4015L185.344 54.5074C185.459 53.4206 186.225 52.7708 187.133 52.8662C188.028 52.9603 188.564 53.6371 188.463 54.6024L187.819 60.7267L190.459 61.0042L191.089 55.0078C191.196 53.9913 191.851 53.3621 192.841 53.4662C193.711 53.5576 194.306 54.1695 194.191 55.2627L193.553 61.3294L196.27 61.6149L196.964 55.0112C197.188 52.8825 196.05 51.5348 194.222 51.3426C192.783 51.1915 191.587 51.809 191.066 52.8918L190.964 52.8811C190.77 51.7102 189.843 50.8824 188.494 50.7406C187.17 50.6015 186.093 51.1992 185.562 52.3133L185.447 52.3012L185.629 50.5688L183.034 50.296L182.002 60.1153ZM198.421 61.841L201.145 62.1273L202.177 52.308L199.453 52.0218L198.421 61.841ZM200.954 50.8998C201.766 50.9851 202.496 50.4349 202.576 49.6742C202.656 48.9198 202.056 48.2299 201.244 48.1445C200.439 48.0599 199.709 48.6101 199.629 49.3644C199.549 50.1252 200.149 50.8152 200.954 50.8998ZM206.646 56.966C206.786 55.7009 207.618 55.0387 208.717 55.1542C209.811 55.2691 210.394 56.0543 210.261 57.2555L209.655 63.0217L212.378 63.308L213.035 57.0559C213.276 54.7673 212.081 53.2198 210.036 53.0048C208.578 52.8516 207.448 53.4567 206.887 54.5546L206.772 54.5425L206.954 52.8101L204.358 52.5373L203.326 62.3566L206.049 62.6428L206.646 56.966Z" fill="white"/>
<path d="M162.675 75.7928L163.675 75.8979L164.037 72.4567L164.122 72.4656C164.305 72.8447 164.647 73.6691 165.901 73.8009C167.528 73.972 168.801 72.786 169.019 70.7179C169.234 68.6667 168.236 67.242 166.591 67.0692C165.32 66.9355 164.848 67.6743 164.592 67.9902L164.474 67.9777L164.582 66.9437L163.616 66.8421L162.675 75.7928ZM164.257 70.2003C164.41 68.7424 165.158 67.8269 166.378 67.9551C167.65 68.0888 168.165 69.2227 168.02 70.5958C167.874 71.9859 167.114 73.02 165.86 72.8882C164.656 72.7617 164.102 71.6751 164.257 70.2003ZM172.919 74.5386C174.242 74.6775 175.277 74.118 175.686 73.1668L174.748 72.794C174.422 73.4454 173.798 73.7225 173.014 73.6401C171.84 73.5167 171.11 72.673 171.21 71.2738L175.935 71.7705L175.98 71.3467C176.235 68.9225 174.881 67.9404 173.525 67.7979C171.762 67.6126 170.446 68.8797 170.236 70.8801C170.026 72.8804 171.038 74.3408 172.919 74.5386ZM171.301 70.4093C171.475 69.4035 172.286 68.5761 173.43 68.6963C174.515 68.8104 175.125 69.6971 175.009 70.799L171.301 70.4093ZM177.15 74.8461L178.151 74.9513L178.583 70.8319C178.676 69.9504 179.439 69.3793 180.388 69.479C180.655 69.5071 180.925 69.5869 180.991 69.611L181.098 68.5939C180.985 68.5734 180.723 68.5373 180.574 68.5217C179.795 68.4397 179.07 68.8092 178.765 69.4284L178.697 69.4213L178.801 68.4381L177.835 68.3365L177.15 74.8461ZM187.391 76.0596C188.645 76.1914 189.151 75.4562 189.409 75.1234L189.528 75.1358L189.423 76.136L190.389 76.2376L191.301 67.5581L190.301 67.453L189.964 70.6569L189.879 70.648C189.695 70.2858 189.387 69.465 188.115 69.3314C186.471 69.1586 185.198 70.3445 184.982 72.3957C184.765 74.4639 185.764 75.8885 187.391 76.0596ZM187.621 75.1754C186.367 75.0435 185.838 73.8739 185.984 72.4839C186.129 71.1108 186.868 70.1087 188.14 70.2423C189.36 70.3706 189.901 71.4215 189.748 72.8794C189.593 74.3543 188.825 75.3019 187.621 75.1754ZM194.259 76.7986C195.395 76.918 196.052 76.3701 196.3 75.9676L196.351 75.973L196.259 76.8545L197.259 76.9596L197.709 72.6707C197.927 70.6026 196.375 70.1996 195.545 70.1122C194.561 70.0089 193.407 70.2304 192.774 71.3635L193.687 71.8024C193.958 71.3509 194.532 70.8971 195.486 70.9973C196.405 71.094 196.808 71.629 196.72 72.4639L196.716 72.4978C196.666 72.9809 196.178 72.8869 194.976 72.9147C193.751 72.9446 192.405 73.0731 192.249 74.5648C192.115 75.8362 193.022 76.6685 194.259 76.7986ZM194.506 75.9162C193.709 75.8324 193.17 75.4159 193.243 74.7208C193.324 73.958 194.044 73.7937 194.834 73.7739C195.263 73.7676 196.411 73.7683 196.602 73.5827L196.506 74.4982C196.421 75.3119 195.693 76.0409 194.506 75.9162ZM199.239 79.6358C200.141 79.7307 200.827 79.3186 201.311 78.3453L204.865 71.1947L203.773 71.0628L201.431 76.0613L201.363 76.0542L200.112 70.678L199.027 70.5639L200.746 77.3604L200.506 77.8494C200.038 78.8028 199.579 78.8488 198.869 78.5857L198.522 79.4405C198.619 79.5021 198.9 79.6002 199.239 79.6358Z" fill="white"/>
<path d="M116.764 42.9214C117.933 41.8177 119.646 41.5156 121.121 42.153L125.657 44.1125C126.453 44.4563 127.338 44.5338 128.182 44.3334L132.989 43.1913C134.552 42.8197 136.187 43.4148 137.146 44.7046L140.094 48.6692C140.612 49.3649 141.34 49.8749 142.171 50.1231L146.905 51.5374C148.445 51.9975 149.563 53.3302 149.749 54.9268L150.319 59.8342C150.42 60.6954 150.795 61.5012 151.391 62.1315L154.783 65.7232C155.887 66.8917 156.189 68.6051 155.551 70.0806L153.592 74.616C153.248 75.4119 153.171 76.2976 153.371 77.1411L154.513 81.9478C154.885 83.5116 154.29 85.1465 153 86.1056L149.035 89.0536C148.34 89.571 147.83 90.2993 147.581 91.13L146.167 95.8638C145.707 97.4038 144.374 98.5222 142.778 98.7079L137.87 99.2786C137.009 99.3788 136.203 99.7546 135.573 100.35L131.981 103.742C130.813 104.846 129.099 105.148 127.624 104.511L123.089 102.551C122.293 102.207 121.407 102.13 120.563 102.33L115.757 103.472C114.193 103.844 112.558 103.249 111.599 101.959L108.651 97.9945C108.134 97.2988 107.405 96.7888 106.575 96.5406L101.841 95.1263C100.301 94.6662 99.1824 93.3335 98.9967 91.7369L98.4259 86.8295C98.3257 85.9682 97.95 85.1624 97.3546 84.5321L93.9622 80.9404C92.8585 79.7719 92.5564 78.0586 93.1939 76.5831L95.1533 72.0477C95.4972 71.2518 95.5747 70.3661 95.3742 69.5226L94.2321 64.7158C93.8606 63.1521 94.4556 61.5172 95.7454 60.5581L99.71 57.6101C100.406 57.0927 100.916 56.3644 101.164 55.5337L102.578 50.7999C103.038 49.2598 104.371 48.1415 105.968 47.9558L110.875 47.3851C111.736 47.2849 112.542 46.9091 113.172 46.3138L116.764 42.9214Z" fill="#FF8833"/>
<path d="M126.056 43.1893L125.657 44.1125L126.056 43.1893L121.52 41.2299C119.676 40.4331 117.534 40.8107 116.074 42.1903L112.482 45.5827C112.009 46.0292 111.405 46.311 110.759 46.3862L105.851 46.957C103.856 47.1891 102.19 48.587 101.615 50.512L100.2 55.2458C100.014 55.8689 99.6318 56.4151 99.11 56.8031L95.1454 59.7511C93.5331 60.95 92.7893 62.9936 93.2538 64.9483L94.3959 69.755C94.5462 70.3877 94.4881 71.052 94.2302 71.6489L92.2707 76.1843C91.4739 78.0286 91.8516 80.1703 93.2311 81.631L96.6236 85.2226C97.0701 85.6954 97.3519 86.2997 97.427 86.9456L97.9978 91.8531C98.2299 93.8488 99.6278 95.5147 101.553 96.0899L106.287 97.5041C106.91 97.6903 107.456 98.0728 107.844 98.5946L110.792 102.559C111.991 104.171 114.034 104.915 115.989 104.451L120.796 103.309C121.429 103.158 122.093 103.216 122.69 103.474L127.225 105.434C129.07 106.231 131.211 105.853 132.672 104.473L136.264 101.081C136.736 100.634 137.341 100.353 137.986 100.278L142.894 99.7067C144.89 99.4746 146.556 98.0767 147.131 96.1517L148.545 91.4179C148.731 90.7948 149.114 90.2486 149.635 89.8606L153.6 86.9125C155.212 85.7137 155.956 83.6701 155.492 81.7154L154.35 76.9087C154.199 76.276 154.257 75.6117 154.515 75.0148L156.475 70.4794C157.271 68.635 156.894 66.4934 155.514 65.0327L152.122 61.441C151.675 60.9683 151.393 60.364 151.318 59.718L150.748 54.8106C150.515 52.8149 149.118 51.149 147.193 50.5738L142.459 49.1595C141.836 48.9734 141.289 48.5909 140.901 48.0691L137.953 44.1045C136.755 42.4923 134.711 41.7485 132.756 42.2129L127.95 43.355C127.317 43.5053 126.653 43.4472 126.056 43.1893Z" stroke="#FF8833" stroke-opacity="0.2" stroke-width="2.01124"/>
<g clip-path="url(#clip0_210:10313)">
<path d="M127.496 87.1907C133.312 86.0603 137.107 80.4178 135.974 74.5878C134.965 69.3966 129.208 63.9508 125.364 60.8161C124.106 59.7903 123.477 59.2773 122.851 59.4095C122.663 59.4491 122.465 59.5403 122.312 59.6571C121.804 60.0469 121.782 60.8869 121.738 62.5669L121.607 67.5949C121.584 68.4592 121.573 68.8914 121.425 69.0422C121.286 69.184 121.081 69.2374 120.89 69.1808C120.688 69.1207 120.469 68.7483 120.03 68.0036C119.375 66.8929 119.047 66.3375 118.619 66.1679C118.229 66.0133 117.744 66.0626 117.393 66.2924C117.008 66.5447 116.809 67.1279 116.41 68.2944C115.168 71.9251 114.354 75.7927 114.915 78.6812C116.048 84.5112 121.681 88.321 127.496 87.1907Z" fill="white"/>
</g>
<defs>
<clipPath id="clip0_210:10313">
<rect width="32.1798" height="32.1798" fill="white" transform="translate(106.074 61.3046) rotate(-11)"/>
</clipPath>
</defs>
</svg>
