<svg width="32" height="20" viewBox="0 0 32 20" fill="none" xmlns="http://www.w3.org/2000/svg">
<rect x="0.325" y="0.325" width="31.35" height="19.35" rx="1.675" fill="white"/>
<g clip-path="url(#clip0_3927_1607)">
<path fill-rule="evenodd" clip-rule="evenodd" d="M14.6332 15.3744L14.8215 14.1668L14.4021 14.1569H12.3994L13.7912 5.24558C13.7955 5.2186 13.8095 5.19355 13.83 5.17573C13.8506 5.15791 13.8768 5.14813 13.9042 5.14813H17.281C18.4021 5.14813 19.1758 5.38366 19.5796 5.84861C19.769 6.06673 19.8896 6.29473 19.948 6.54553C20.0092 6.80876 20.0102 7.12321 19.9505 7.5068L19.9462 7.5347V7.78051L20.1355 7.88886C20.295 7.97429 20.4217 8.07205 20.5189 8.18396C20.6809 8.37051 20.7856 8.60757 20.8299 8.88851C20.8757 9.1775 20.8606 9.52148 20.7856 9.91087C20.6992 10.3587 20.5596 10.7488 20.3709 11.068C20.1975 11.362 19.9764 11.606 19.7139 11.795C19.4633 11.9746 19.1657 12.111 18.8291 12.1983C18.5029 12.284 18.131 12.3273 17.7231 12.3273H17.4603C17.2724 12.3273 17.0899 12.3956 16.9466 12.5181C16.8029 12.6431 16.7079 12.814 16.6788 13.0009L16.6589 13.1096L16.3263 15.2382L16.3112 15.3163C16.3072 15.341 16.3003 15.3533 16.2903 15.3617C16.2813 15.3693 16.2684 15.3744 16.2558 15.3744H14.6332Z" fill="#28356A"/>
<path fill-rule="evenodd" clip-rule="evenodd" d="M20.3147 7.56183C20.3047 7.6269 20.2931 7.69339 20.2802 7.76172C19.8349 10.0706 18.3113 10.8682 16.3656 10.8682H15.3748C15.1368 10.8682 14.9363 11.0426 14.8993 11.2797L14.2484 15.4491C14.2243 15.6048 14.343 15.745 14.4985 15.745H16.2557C16.4638 15.745 16.6405 15.5924 16.6733 15.3851L16.6906 15.295L17.0214 13.1748L17.0427 13.0586C17.0751 12.8506 17.2522 12.6979 17.4603 12.6979H17.723C19.4255 12.6979 20.7583 11.9999 21.1478 9.98006C21.3105 9.13631 21.2263 8.43175 20.7957 7.93625C20.6654 7.78687 20.5038 7.66284 20.3147 7.56183Z" fill="#298FC2"/>
<path fill-rule="evenodd" clip-rule="evenodd" d="M19.8478 7.37496C19.7798 7.3549 19.7096 7.33677 19.6376 7.32038C19.5652 7.30439 19.4911 7.29024 19.4147 7.27782C19.1476 7.23423 18.8549 7.21356 18.5414 7.21356H15.8947C15.8294 7.21356 15.7675 7.22843 15.7122 7.25531C15.59 7.31458 15.4994 7.43127 15.4774 7.57414L14.9143 11.1754L14.8982 11.2804C14.9352 11.0433 15.1358 10.8689 15.3737 10.8689H16.3645C18.3103 10.8689 19.8338 10.0709 20.2791 7.76242C20.2924 7.69409 20.3036 7.6276 20.3136 7.56253C20.201 7.50214 20.079 7.45052 19.9476 7.40653C19.9151 7.39563 19.8816 7.38514 19.8478 7.37496Z" fill="#22284F"/>
<path fill-rule="evenodd" clip-rule="evenodd" d="M15.4773 7.57426C15.4993 7.43139 15.5899 7.3147 15.712 7.25584C15.7678 7.22886 15.8293 7.21399 15.8946 7.21399H18.5413C18.8548 7.21399 19.1475 7.23476 19.4146 7.27834C19.491 7.29067 19.5651 7.30492 19.6375 7.32091C19.7095 7.3372 19.7797 7.35543 19.8477 7.37539C19.8815 7.38557 19.915 7.39616 19.9478 7.40665C20.0791 7.45064 20.2013 7.50267 20.3139 7.56265C20.4464 6.70943 20.3128 6.12849 19.856 5.60244C19.3523 5.02324 18.4433 4.77539 17.2802 4.77539H13.9033C13.6657 4.77539 13.463 4.94982 13.4263 5.18729L12.0198 14.1903C11.9921 14.3684 12.1281 14.5291 12.306 14.5291H14.3907L15.4773 7.57426Z" fill="#28356A"/>
</g>
<rect x="0.325" y="0.325" width="31.35" height="19.35" rx="1.675" stroke="black" stroke-width="0.65"/>
<defs>
<clipPath id="clip0_3927_1607">
<rect width="10" height="12" fill="white" transform="translate(11.3334 4)"/>
</clipPath>
</defs>
</svg>
