<svg width="32" height="20" viewBox="0 0 32 20" fill="none" xmlns="http://www.w3.org/2000/svg">
<path d="M28.443 0H2.79775C2.69094 0 2.58394 0 2.47732 0.000622847C2.3872 0.00126457 2.29728 0.0022649 2.20736 0.00471853C2.01126 0.0100222 1.81348 0.021592 1.61983 0.0563959C1.42309 0.0918038 1.24001 0.149559 1.0614 0.240494C0.885816 0.329788 0.725064 0.446581 0.585756 0.585948C0.446388 0.725314 0.329595 0.885801 0.24032 1.06158C0.149365 1.24018 0.0915728 1.42332 0.0564103 1.62021C0.0214195 1.81392 0.00977227 2.01166 0.00448752 2.20756C0.00207163 2.29747 0.00103544 2.38739 0.00044845 2.47729C-0.000174397 2.58413 3.32185e-05 2.6909 3.32185e-05 2.79794V17.2023C3.32185e-05 17.3093 -0.000174397 17.4159 0.00044845 17.5229C0.00103544 17.6128 0.00207163 17.7028 0.00448752 17.7927C0.00977227 17.9884 0.0214195 18.1861 0.0564103 18.3798C0.0915728 18.5768 0.149365 18.7598 0.24032 18.9384C0.329595 19.1142 0.446388 19.2749 0.585756 19.4141C0.725064 19.5537 0.885816 19.6704 1.0614 19.7595C1.24001 19.8507 1.42309 19.9085 1.61983 19.9438C1.81348 19.9784 2.01126 19.9902 2.20736 19.9955C2.29728 19.9975 2.3872 19.9988 2.47732 19.9992C2.58394 20 2.69094 20 2.79775 20H28.443C28.5496 20 28.6566 20 28.7632 19.9992C28.8531 19.9988 28.943 19.9975 29.0333 19.9955C29.229 19.9902 29.4268 19.9784 29.6209 19.9438C29.8174 19.9085 30.0005 19.8507 30.1791 19.7595C30.3549 19.6704 30.5152 19.5537 30.6548 19.4141C30.7939 19.2749 30.9107 19.1142 31.0002 18.9384C31.0914 18.7598 31.1491 18.5768 31.1841 18.3798C31.2191 18.1861 31.2305 17.9884 31.2358 17.7927C31.2382 17.7028 31.2394 17.6128 31.2398 17.5229C31.2407 17.4159 31.2407 17.3093 31.2407 17.2023V2.79794C31.2407 2.6909 31.2407 2.58413 31.2398 2.47729C31.2394 2.38739 31.2382 2.29747 31.2358 2.20756C31.2305 2.01166 31.2191 1.81392 31.1841 1.62021C31.1491 1.42332 31.0914 1.24018 31.0002 1.06158C30.9107 0.885801 30.7939 0.725314 30.6548 0.585948C30.5152 0.446581 30.3549 0.329788 30.1791 0.240494C30.0005 0.149559 29.8174 0.0918038 29.6209 0.0563959C29.4268 0.021592 29.229 0.0100222 29.0333 0.00471853C28.943 0.0022649 28.8531 0.00126457 28.7632 0.000622847C28.6566 0 28.5496 0 28.443 0Z" fill="black"/>
<path d="M28.4429 0.666626L28.7584 0.66723C28.8439 0.667834 28.9293 0.668759 29.0153 0.671099C29.1648 0.675138 29.3396 0.683235 29.5026 0.712452C29.6443 0.73797 29.7631 0.776775 29.8772 0.834832C29.9898 0.89204 30.0929 0.967008 30.183 1.05694C30.2734 1.14748 30.3485 1.2508 30.4064 1.36463C30.4642 1.47778 30.5027 1.59605 30.5281 1.73877C30.5572 1.89999 30.5653 2.07533 30.5694 2.22574C30.5717 2.31064 30.5728 2.39553 30.5732 2.48245C30.574 2.58756 30.574 2.69261 30.574 2.79793V17.2023C30.574 17.3076 30.574 17.4124 30.5732 17.5198C30.5728 17.6047 30.5717 17.6896 30.5694 17.7746C30.5653 17.9248 30.5572 18.1 30.5277 18.2632C30.5027 18.4039 30.4642 18.5222 30.4061 18.6359C30.3483 18.7495 30.2734 18.8527 30.1834 18.9427C30.0928 19.0333 29.99 19.108 29.8761 19.1657C29.7629 19.2235 29.6442 19.2623 29.5039 19.2875C29.3377 19.3172 29.1555 19.3253 29.0182 19.329C28.9319 19.331 28.846 19.3321 28.758 19.3326C28.6531 19.3334 28.5478 19.3334 28.4429 19.3334H2.79772C2.79633 19.3334 2.79497 19.3334 2.79355 19.3334C2.68986 19.3334 2.58596 19.3334 2.48037 19.3325C2.39429 19.3321 2.30839 19.331 2.22535 19.3291C2.085 19.3253 1.90269 19.3172 1.73775 19.2877C1.59625 19.2623 1.47763 19.2235 1.36295 19.165C1.2501 19.1078 1.14737 19.0331 1.05675 18.9423C0.966838 18.8526 0.892115 18.7497 0.834342 18.636C0.776511 18.5224 0.737819 18.4037 0.712379 18.2613C0.682971 18.0985 0.674893 17.9239 0.670856 17.7747C0.668551 17.6893 0.667589 17.604 0.667041 17.5191L0.666626 17.2684L0.666645 17.2023V2.79793L0.666626 2.73176L0.667022 2.48166C0.667589 2.39625 0.668551 2.31087 0.670856 2.22554C0.674893 2.07622 0.682971 1.9016 0.712622 1.73743C0.737838 1.59627 0.776511 1.47763 0.834644 1.36346C0.891964 1.25061 0.966819 1.1476 1.05721 1.05723C1.14724 0.967159 1.25031 0.892285 1.36387 0.83453C1.47733 0.776757 1.59618 0.73797 1.73768 0.712509C1.90071 0.683216 2.07569 0.675138 2.22555 0.67108C2.31098 0.668759 2.3964 0.667834 2.48119 0.667249L2.79772 0.666626H28.4429Z" fill="white"/>
<path d="M8.52856 6.72685C8.79605 6.39228 8.97757 5.94304 8.92969 5.48398C8.53812 5.50345 8.06029 5.74231 7.78364 6.07715C7.53525 6.36388 7.3154 6.83193 7.37271 7.27175C7.81227 7.30988 8.25142 7.05204 8.52856 6.72685Z" fill="black"/>
<path d="M8.92465 7.35762C8.28631 7.3196 7.74356 7.71991 7.43872 7.71991C7.13371 7.71991 6.6669 7.37678 6.162 7.38603C5.50485 7.39568 4.89508 7.76724 4.5616 8.35819C3.8757 9.5404 4.38059 11.294 5.0476 12.2568C5.37152 12.7332 5.76189 13.2577 6.27626 13.2388C6.76226 13.2198 6.95275 12.9242 7.5435 12.9242C8.13382 12.9242 8.30541 13.2388 8.81987 13.2293C9.35338 13.2198 9.68691 12.7527 10.0108 12.2759C10.3824 11.7329 10.5345 11.2086 10.5441 11.1798C10.5345 11.1703 9.51535 10.7793 9.5059 9.60692C9.49627 8.62527 10.3061 8.15834 10.3442 8.12939C9.88688 7.45304 9.17236 7.37678 8.92465 7.35762Z" fill="black"/>
<path d="M14.4828 6.02912C15.8702 6.02912 16.8364 6.98548 16.8364 8.37788C16.8364 9.77525 15.8504 10.7366 14.448 10.7366H12.9119V13.1795H11.802V6.02911H14.4828V6.02912ZM12.9119 9.80498H14.1854C15.1517 9.80498 15.7016 9.28474 15.7016 8.38285C15.7016 7.48106 15.1517 6.9657 14.1903 6.9657H12.9119V9.80498Z" fill="black"/>
<path d="M17.1263 11.6979C17.1263 10.7861 17.825 10.2262 19.0639 10.1568L20.4909 10.0726V9.67127C20.4909 9.09149 20.0994 8.74463 19.4455 8.74463C18.8259 8.74463 18.4394 9.04188 18.3454 9.50774H17.3345C17.394 8.56618 18.1966 7.87247 19.4851 7.87247C20.7486 7.87247 21.5563 8.54143 21.5563 9.58697V13.1795H20.5305V12.3223H20.5058C20.2036 12.902 19.5445 13.2687 18.8607 13.2687C17.8399 13.2687 17.1263 12.6344 17.1263 11.6979ZM20.4909 11.2272V10.8159L19.2075 10.8952C18.5683 10.9398 18.2066 11.2222 18.2066 11.6682C18.2066 12.124 18.5832 12.4214 19.158 12.4214C19.9062 12.4214 20.4909 11.906 20.4909 11.2272Z" fill="black"/>
<path d="M22.5246 15.0972V14.23C22.6038 14.2498 22.7821 14.2498 22.8714 14.2498C23.3669 14.2498 23.6345 14.0417 23.798 13.5066C23.798 13.4966 23.8922 13.1895 23.8922 13.1845L22.0093 7.96661H23.1687L24.4869 12.2083H24.5066L25.8248 7.96661H26.9546L25.0021 13.452C24.5563 14.7157 24.0409 15.122 22.9607 15.122C22.8714 15.122 22.6038 15.112 22.5246 15.0972Z" fill="black"/>
</svg>
