<svg width="32" height="20" viewBox="0 0 32 20" fill="none" xmlns="http://www.w3.org/2000/svg">
<rect x="0.325" y="0.325" width="31.35" height="19.35" rx="1.675" fill="white"/>
<path fill-rule="evenodd" clip-rule="evenodd" d="M16.3156 14.0245C15.3289 14.8561 14.0491 15.3581 12.6506 15.3581C9.52985 15.3581 7 12.8583 7 9.77474C7 6.69115 9.52985 4.19141 12.6506 4.19141C14.0491 4.19141 15.3289 4.69342 16.3156 5.52502C17.3023 4.69342 18.5821 4.19141 19.9807 4.19141C23.1014 4.19141 25.6312 6.69115 25.6312 9.77474C25.6312 12.8583 23.1014 15.3581 19.9807 15.3581C18.5821 15.3581 17.3023 14.8561 16.3156 14.0245Z" fill="#ED0006"/>
<path fill-rule="evenodd" clip-rule="evenodd" d="M16.3157 14.0245C17.5307 13.0004 18.3012 11.4765 18.3012 9.77474C18.3012 8.07302 17.5307 6.54911 16.3157 5.52502C17.3024 4.69342 18.5822 4.19141 19.9807 4.19141C23.1014 4.19141 25.6313 6.69115 25.6313 9.77474C25.6313 12.8583 23.1014 15.3581 19.9807 15.3581C18.5822 15.3581 17.3024 14.8561 16.3157 14.0245Z" fill="#F9A000"/>
<path fill-rule="evenodd" clip-rule="evenodd" d="M16.3156 14.0245C17.5307 13.0004 18.3012 11.4765 18.3012 9.77474C18.3012 8.07302 17.5307 6.54911 16.3156 5.52502C15.1006 6.54911 14.3301 8.07302 14.3301 9.77474C14.3301 11.4765 15.1006 13.0004 16.3156 14.0245Z" fill="#FF5E00"/>
<rect x="0.325" y="0.325" width="31.35" height="19.35" rx="1.675" stroke="black" stroke-width="0.65"/>
</svg>
