<svg width="32" height="20" viewBox="0 0 32 20" fill="none" xmlns="http://www.w3.org/2000/svg">
<rect x="0.325" y="0.325" width="31.35" height="19.35" rx="1.675" fill="white"/>
<path d="M17.8814 9.75415C17.8814 12.8404 15.4082 15.3423 12.3574 15.3423C9.30655 15.3423 6.83337 12.8404 6.83337 9.75415C6.83337 6.66791 9.30655 4.16602 12.3574 4.16602C15.4082 4.16602 17.8814 6.66791 17.8814 9.75415Z" fill="#ED0006"/>
<path d="M25.0474 9.75415C25.0474 12.8404 22.5742 15.3423 19.5234 15.3423C16.4726 15.3423 13.9994 12.8404 13.9994 9.75415C13.9994 6.66791 16.4726 4.16602 19.5234 4.16602C22.5742 4.16602 25.0474 6.66791 25.0474 9.75415Z" fill="#0099DF"/>
<path fill-rule="evenodd" clip-rule="evenodd" d="M15.9404 14.0094C17.1282 12.9845 17.8814 11.4593 17.8814 9.75612C17.8814 8.05297 17.1282 6.52777 15.9404 5.50281C14.7526 6.52777 13.9994 8.05297 13.9994 9.75612C13.9994 11.4593 14.7526 12.9845 15.9404 14.0094Z" fill="#6C6BBD"/>
<rect x="0.325" y="0.325" width="31.35" height="19.35" rx="1.675" stroke="black" stroke-width="0.65"/>
</svg>
