<svg width="32" height="20" viewBox="0 0 32 20" fill="none" xmlns="http://www.w3.org/2000/svg">
<rect x="0.325" y="0.325" width="31.35" height="19.35" rx="1.675" fill="white"/>
<path fill-rule="evenodd" clip-rule="evenodd" d="M11.1253 13.2159H9.40884L8.12171 8.16105C8.06062 7.92853 7.9309 7.72296 7.74009 7.62607C7.2639 7.3826 6.73918 7.18883 6.16675 7.0911V6.89648H8.93182C9.31343 6.89648 9.59965 7.18883 9.64735 7.52835L10.3152 11.1746L12.0308 6.89648H13.6995L11.1253 13.2159ZM14.654 13.2159H13.033L14.3678 6.89648H15.9888L14.654 13.2159ZM18.0854 8.64643C18.1331 8.30606 18.4193 8.11145 18.7532 8.11145C19.2779 8.06259 19.8495 8.16032 20.3265 8.40295L20.6127 7.04234C20.1357 6.84773 19.611 6.75 19.1348 6.75C17.5615 6.75 16.4166 7.62534 16.4166 8.8402C16.4166 9.7644 17.2275 10.2497 17.8 10.542C18.4193 10.8335 18.6578 11.0281 18.6101 11.3196C18.6101 11.7569 18.1331 11.9515 17.6569 11.9515C17.0844 11.9515 16.512 11.8057 15.9881 11.5623L15.7019 12.9237C16.2743 13.1663 16.8936 13.2641 17.4661 13.2641C19.2302 13.3121 20.3265 12.4376 20.3265 11.125C20.3265 9.47206 18.0854 9.37517 18.0854 8.64643ZM26 13.2159L24.7129 6.89648H23.3303C23.0441 6.89648 22.7579 7.0911 22.6625 7.3826L20.2791 13.2159H21.9478L22.2809 12.2926H24.3313L24.5221 13.2159H26ZM23.5693 8.59766L24.0455 10.9794H22.7107L23.5693 8.59766Z" fill="#172B85"/>
<rect x="0.325" y="0.325" width="31.35" height="19.35" rx="1.675" stroke="black" stroke-width="0.65"/>
</svg>
