<svg width="38" height="20" viewBox="0 0 38 20" fill="none" xmlns="http://www.w3.org/2000/svg">
<path d="M27.635 0H10.035C4.53504 0 0.0350342 4.5 0.0350342 10C0.0350342 15.5 4.53504 20 10.035 20H27.635C33.135 20 37.635 15.5 37.635 10C37.635 4.5 33.135 0 27.635 0Z" fill="white"/>
<path d="M27.635 0.81C28.87 0.81 30.07 1.055 31.2 1.535C32.295 2 33.275 2.665 34.125 3.51C34.97 4.355 35.635 5.34 36.1 6.435C36.58 7.565 36.825 8.765 36.825 10C36.825 11.235 36.58 12.435 36.1 13.565C35.635 14.66 34.97 15.64 34.125 16.49C33.28 17.335 32.295 18 31.2 18.465C30.07 18.945 28.87 19.19 27.635 19.19H10.035C8.80004 19.19 7.60003 18.945 6.47003 18.465C5.37503 18 4.39503 17.335 3.54503 16.49C2.70003 15.645 2.03503 14.66 1.57003 13.565C1.09003 12.435 0.845034 11.235 0.845034 10C0.845034 8.765 1.09003 7.565 1.57003 6.435C2.03503 5.34 2.70003 4.36 3.54503 3.51C4.39003 2.665 5.37503 2 6.47003 1.535C7.60003 1.055 8.80004 0.81 10.035 0.81H27.635ZM27.635 0H10.035C4.53504 0 0.0350342 4.5 0.0350342 10C0.0350342 15.5 4.53504 20 10.035 20H27.635C33.135 20 37.635 15.5 37.635 10C37.635 4.5 33.135 0 27.635 0Z" fill="#3C4043"/>
<path d="M17.965 10.71V13.735H17.005V6.26501H19.55C20.195 6.26501 20.745 6.48002 21.195 6.91002C21.655 7.34002 21.885 7.86502 21.885 8.48502C21.885 9.12002 21.655 9.64502 21.195 10.07C20.75 10.495 20.2 10.705 19.55 10.705H17.965V10.71ZM17.965 7.18502V9.79001H19.57C19.95 9.79001 20.27 9.66002 20.52 9.40502C20.775 9.15002 20.905 8.84001 20.905 8.49001C20.905 8.14501 20.775 7.84002 20.52 7.58502C20.27 7.32002 19.955 7.19001 19.57 7.19001H17.965V7.18502Z" fill="#3C4043"/>
<path d="M24.395 8.45502C25.105 8.45502 25.665 8.64502 26.075 9.02502C26.485 9.40502 26.69 9.92502 26.69 10.585V13.735H25.775V13.025H25.735C25.34 13.61 24.81 13.9 24.15 13.9C23.585 13.9 23.115 13.735 22.735 13.4C22.355 13.065 22.165 12.65 22.165 12.15C22.165 11.62 22.365 11.2 22.765 10.89C23.165 10.575 23.7 10.42 24.365 10.42C24.935 10.42 25.405 10.525 25.77 10.735V10.515C25.77 10.18 25.64 9.90002 25.375 9.66502C25.11 9.43002 24.8 9.31502 24.445 9.31502C23.91 9.31502 23.485 9.54002 23.175 9.99502L22.33 9.46502C22.795 8.79002 23.485 8.45502 24.395 8.45502ZM23.155 12.165C23.155 12.415 23.26 12.625 23.475 12.79C23.685 12.955 23.935 13.04 24.22 13.04C24.625 13.04 24.985 12.89 25.3 12.59C25.615 12.29 25.775 11.94 25.775 11.535C25.475 11.3 25.06 11.18 24.525 11.18C24.135 11.18 23.81 11.275 23.55 11.46C23.285 11.655 23.155 11.89 23.155 12.165Z" fill="#3C4043"/>
<path d="M31.91 8.62003L28.71 15.98H27.7201L28.91 13.405L26.8 8.62003H27.8451L29.365 12.29H29.385L30.865 8.62003H31.91Z" fill="#3C4043"/>
<path d="M14.1465 10.1C14.1465 9.78699 14.1185 9.48749 14.0665 9.19949H10.0425V10.8495L12.36 10.85C12.266 11.399 11.9635 11.867 11.5 12.179V13.2495H12.8795C13.685 12.504 14.1465 11.402 14.1465 10.1Z" fill="#4285F4"/>
<path d="M11.5005 12.179C11.1165 12.438 10.622 12.5895 10.0435 12.5895C8.92595 12.5895 7.97795 11.8365 7.63845 10.8215H6.21545V11.9255C6.92045 13.3245 8.36945 14.2845 10.0435 14.2845C11.2005 14.2845 12.1725 13.904 12.88 13.249L11.5005 12.179Z" fill="#34A853"/>
<path d="M7.50451 10.0025C7.50451 9.71751 7.55201 9.44201 7.63851 9.18301V8.07901H6.21551C5.92401 8.65751 5.76001 9.31051 5.76001 10.0025C5.76001 10.6945 5.92451 11.3475 6.21551 11.926L7.63851 10.822C7.55201 10.563 7.50451 10.2875 7.50451 10.0025Z" fill="#FABB05"/>
<path d="M10.0435 7.415C10.675 7.415 11.2405 7.6325 11.687 8.0575L12.9095 6.836C12.167 6.1445 11.199 5.72 10.0435 5.72C8.36995 5.72 6.92045 6.68 6.21545 8.079L7.63845 9.183C7.97795 8.168 8.92595 7.415 10.0435 7.415Z" fill="#E94235"/>
</svg>
