<svg width="32" height="20" viewBox="0 0 32 20" fill="none" xmlns="http://www.w3.org/2000/svg">
<rect x="0.325" y="0.325" width="31.35" height="19.35" rx="1.675" fill="white"/>
<path d="M13.6667 19.5L31.5167 14V18C31.5167 18.8284 30.8452 19.5 30.0167 19.5H13.6667Z" fill="#FD6020"/>
<path fill-rule="evenodd" clip-rule="evenodd" d="M26.4951 7.5918C27.3662 7.5918 27.8453 7.99475 27.8453 8.75588C27.8888 9.33792 27.4968 9.83042 26.9742 9.91996L28.1501 11.5765H27.2355L26.2338 9.96474H26.1467V11.5765H25.4062V7.5918H26.4951ZM26.1465 9.42761H26.3643C26.8433 9.42761 27.0611 9.20374 27.0611 8.80079C27.0611 8.44261 26.8433 8.21875 26.3643 8.21875H26.1465V9.42761ZM22.8359 11.5765H24.9265V10.905H23.5764V9.83042H24.883V9.15883H23.5764V8.26338H24.9265V7.5918H22.8359V11.5765ZM20.6588 10.2781L19.657 7.5918H18.873L20.4845 11.6661H20.8765L22.488 7.5918H21.7041L20.6588 10.2781ZM11.8174 9.60661C11.8174 10.7259 12.6885 11.6661 13.7773 11.6661C14.1257 11.6661 14.4306 11.5766 14.7355 11.4423V10.5468C14.5177 10.8155 14.2128 10.9946 13.8644 10.9946C13.1676 10.9946 12.6014 10.4573 12.6014 9.74092V9.65138C12.5578 8.93502 13.124 8.3082 13.8209 8.26343C14.1693 8.26343 14.5177 8.44252 14.7355 8.71116V7.81571C14.4742 7.63662 14.1257 7.59185 13.8209 7.59185C12.6885 7.5023 11.8174 8.44252 11.8174 9.60661ZM10.4672 9.11464C10.0316 8.93555 9.90096 8.846 9.90096 8.62214C9.94451 8.35351 10.1623 8.12964 10.4236 8.17442C10.6414 8.17442 10.8591 8.30873 11.0334 8.48782L11.4253 7.95055C11.1205 7.68192 10.7285 7.50283 10.3365 7.50283C9.72675 7.45806 9.2041 7.95055 9.16054 8.57737V8.62214C9.16054 9.15941 9.37831 9.47282 10.0752 9.69668C10.2494 9.74145 10.4236 9.831 10.5978 9.92054C10.7285 10.0101 10.8156 10.1444 10.8156 10.3235C10.8156 10.6369 10.5543 10.9055 10.2929 10.9055H10.2494C9.90096 10.9055 9.59608 10.6817 9.46542 10.3683L8.98633 10.8608C9.24765 11.3533 9.7703 11.6219 10.2929 11.6219C10.9898 11.6667 11.556 11.1294 11.5996 10.413V10.2787C11.556 9.74145 11.3382 9.47282 10.4672 9.11464ZM7.94043 11.5765H8.68085V7.5918H7.94043V11.5765ZM4.5 7.5918H5.58885H5.80662C6.85191 7.63657 7.67944 8.53202 7.63588 9.60656C7.63588 10.1886 7.37456 10.7259 6.93902 11.1288C6.54703 11.4422 6.06794 11.6213 5.58885 11.5765H4.5V7.5918ZM5.458 10.9041C5.80644 10.9488 6.19842 10.8145 6.45974 10.5907C6.72107 10.322 6.85173 9.96384 6.85173 9.56089C6.85173 9.20271 6.72107 8.84453 6.45974 8.57589C6.19842 8.35203 5.80644 8.21771 5.458 8.26248H5.24023V10.9041H5.458Z" fill="black"/>
<path fill-rule="evenodd" clip-rule="evenodd" d="M16.9566 7.5C15.8678 7.5 14.9531 8.39545 14.9531 9.55953C14.9531 10.6788 15.8242 11.6191 16.9566 11.6638C18.089 11.7086 18.9601 10.7684 19.0036 9.60431C18.9601 8.44022 18.089 7.5 16.9566 7.5V7.5Z" fill="#FD6020"/>
<rect x="0.325" y="0.325" width="31.35" height="19.35" rx="1.675" stroke="black" stroke-width="0.65"/>
</svg>
