<svg width="32" height="20" viewBox="0 0 32 20" fill="none" xmlns="http://www.w3.org/2000/svg">
<rect x="0.325" y="0.325" width="31.35" height="19.35" rx="1.675" fill="#1F72CD"/>
<path fill-rule="evenodd" clip-rule="evenodd" d="M6.7133 7.08331L4 13.1223H7.2482L7.65088 12.1594H8.57133L8.97401 13.1223H12.5494V12.3874L12.868 13.1223H14.7174L15.036 12.3718V13.1223H22.4718L23.3759 12.1844L24.2225 13.1223L28.0417 13.13L25.3198 10.1196L28.0417 7.08331H24.2818L23.4016 8.00384L22.5817 7.08331H14.4925L13.7979 8.64202L13.087 7.08331H9.84558V7.79319L9.48499 7.08331H6.7133ZM7.3418 7.94088H8.92513L10.7249 12.0359V7.94088H12.4593L13.8494 10.877L15.1305 7.94088H16.8563V12.2742H15.8062L15.7977 8.87864L14.2667 12.2742H13.3273L11.7878 8.87864V12.2742H9.62747L9.21791 11.3027H7.00523L6.59652 12.2734H5.43905L7.3418 7.94088ZM22.0872 7.94088H17.8172V12.2717H22.021L23.376 10.8364L24.682 12.2717H26.0472L24.0629 10.1188L26.0472 7.94088H24.7412L23.3931 9.35969L22.0872 7.94088ZM8.11211 8.67406L7.38312 10.4047H8.84025L8.11211 8.67406ZM18.8716 9.62914V8.83809V8.83733H21.5359L22.6985 10.1024L21.4844 11.3744H18.8716V10.5108H21.201V9.62914H18.8716Z" fill="white"/>
<rect x="0.325" y="0.325" width="31.35" height="19.35" rx="1.675" stroke="black" stroke-width="0.65"/>
</svg>
