<svg width="327" height="216" viewBox="0 0 327 216" fill="none" xmlns="http://www.w3.org/2000/svg">
<g clip-path="url(#clip0_286_10617)">
<rect width="327" height="216" fill="#FFF6DF"/>
<rect width="155.5" height="216" fill="#E9E9E9"/>
<rect width="155.5" height="140" transform="translate(0 12)" fill="#E9E9E9"/>
<path d="M27.6297 39.0449H82.9218C86.626 39.0449 89.6289 41.3065 89.6289 44.0963V50.9059C89.6289 53.6957 86.626 55.9572 82.9218 55.9572H27.6297C23.9255 55.9572 20.9226 53.6957 20.9226 50.9059V44.0963C20.9226 41.3065 23.9255 39.0449 27.6297 39.0449Z" fill="#DADADA"/>
<path fill-rule="evenodd" clip-rule="evenodd" d="M21.0139 43.2715L59.9723 43.2715C60.5351 43.2707 61.0926 43.3931 61.6128 43.6317C62.1331 43.8703 62.606 44.2205 63.0045 44.6621C63.403 45.1038 63.7193 45.6284 63.9353 46.2059C64.1514 46.7835 64.263 47.4026 64.2637 48.0281C64.263 48.6535 64.1514 49.2727 63.9353 49.8502C63.7193 50.4277 63.403 50.9523 63.0045 51.394C62.606 51.8357 62.1331 52.1859 61.6128 52.4245C61.0926 52.6631 60.5351 52.7855 59.9723 52.7847L21.4055 52.7847C21.0957 52.2034 20.9253 51.5688 20.9253 50.9041V44.0946C20.9253 43.8143 20.9556 43.5394 21.0139 43.2715Z" fill="#DBDBDB"/>
<path d="M130.771 77.6299L100.583 57.1157C98.2934 55.56 95.1763 56.1548 93.6206 58.4441L90.1899 63.4927C88.6342 65.7821 89.2289 68.8992 91.5183 70.4549L121.706 90.969C123.996 92.5248 127.113 91.93 128.669 89.6406L132.099 84.5921C133.655 82.3027 133.06 79.1856 130.771 77.6299Z" fill="#DADADA"/>
<path d="M107.188 66.2998C106.038 65.5196 104.03 66.4698 102.705 68.4239C101.379 70.3781 101.231 72.5968 102.38 73.377L127.806 90.655C128.106 90.3877 128.371 90.0846 128.596 89.7525L132.181 84.4793C132.368 84.2046 132.526 83.9115 132.653 83.6046L107.188 66.2998Z" fill="#DBDBDB"/>
<path d="M135.51 92.3262H94.3293C91.7334 92.3262 89.6289 94.7262 89.6289 97.6867V102.477C89.6289 105.438 91.7334 107.838 94.3293 107.838H135.51C138.106 107.838 140.21 105.438 140.21 102.477V97.6867C140.21 94.7262 138.106 92.3262 135.51 92.3262Z" fill="#F8F8F8"/>
<path d="M14.4501 85.0195H83.7811C87.0108 85.0195 89.6289 87.6173 89.6289 90.8218V100.54C89.6289 103.745 87.0108 106.342 83.7811 106.342H14.4501C11.2204 106.342 8.60229 103.745 8.60229 100.54V90.8218C8.60229 87.6173 11.2204 85.0195 14.4501 85.0195Z" fill="#DADADA"/>
<path fill-rule="evenodd" clip-rule="evenodd" d="M9.08516 88.5039H59.2919C60.4266 88.5039 61.5148 88.9547 62.3172 89.757C63.1195 90.5594 63.5703 91.6476 63.5703 92.7823V97.6222C63.5703 98.7569 63.1195 99.8451 62.3172 100.647C61.5148 101.45 60.4266 101.901 59.2919 101.901H8.7606C8.65515 101.465 8.5993 101.01 8.5993 100.541V90.8231C8.5993 89.9986 8.77265 89.2142 9.08516 88.5039Z" fill="#F8F8F8"/>
<path d="M52.51 91.6982H46.0861V98.3881C46.0858 98.4804 46.113 98.5707 46.1643 98.6475C46.2155 98.7243 46.2885 98.7841 46.3739 98.8192C46.4593 98.8543 46.5531 98.8632 46.6436 98.8447C46.7341 98.8263 46.817 98.7813 46.8817 98.7155L49.2999 96.2827L51.7162 98.7155C51.7812 98.781 51.8642 98.8258 51.9547 98.8441C52.0451 98.8624 52.139 98.8535 52.2244 98.8184C52.3098 98.7834 52.3828 98.7238 52.4343 98.6471C52.4858 98.5705 52.5134 98.4804 52.5137 98.3881L52.51 91.6982Z" fill="#F8F8F8"/>
<path d="M8.69727 128.705C8.69727 125.791 11.0596 123.429 13.9736 123.429H84.0734C86.9875 123.429 89.3498 125.791 89.3498 128.705V134.735C89.3498 137.649 86.9875 140.011 84.0734 140.011H13.9736C11.0596 140.011 8.69727 137.649 8.69727 134.735V128.705Z" fill="#DADADA"/>
<path d="M145.607 110.852C145.607 109.187 144.258 107.837 142.592 107.837H92.6457C90.9806 107.837 89.6307 109.187 89.6307 110.852V116.961C89.6307 118.627 90.9806 119.976 92.6457 119.976H142.592C144.258 119.976 145.607 118.627 145.607 116.961V110.852Z" fill="#DADADA"/>
<path d="M12.9087 105.335H85.6966C87.8684 105.335 89.6289 107.313 89.6289 109.752V119.008C89.6289 121.448 87.8684 123.425 85.6966 123.425H12.9087C10.7369 123.425 8.9764 121.448 8.9764 119.008V109.752C8.9764 107.313 10.7369 105.335 12.9087 105.335Z" fill="#F8F8F8"/>
<path d="M31.5918 113.229C31.5918 111.366 33.1015 109.856 34.9639 109.856H89.5918V119.298H34.9639C33.1015 119.298 31.5918 117.789 31.5918 115.926V113.229Z" fill="#DBDBDB"/>
<path d="M80.8186 111.206H74.3947V117.896C74.3944 117.988 74.4216 118.079 74.4728 118.155C74.5241 118.232 74.5971 118.292 74.6825 118.327C74.7678 118.362 74.8617 118.371 74.9522 118.353C75.0427 118.334 75.1256 118.289 75.1903 118.223L77.6084 115.791L80.0248 118.223C80.0898 118.289 80.1728 118.334 80.2633 118.352C80.3537 118.37 80.4476 118.361 80.533 118.326C80.6184 118.291 80.6914 118.232 80.7429 118.155C80.7944 118.078 80.822 117.988 80.8223 117.896L80.8186 111.206Z" fill="#F8F8F8"/>
<path d="M82.3203 85.1992L13.3076 85.1992C9.2717 85.1992 6 81.6955 6 77.3734L6 63.3507C6 59.0286 9.2717 55.5248 13.3076 55.5248L82.3203 55.5248C86.3561 55.5248 89.6279 59.0286 89.6279 63.3507V77.3734C89.6279 81.6955 86.3561 85.1992 82.3203 85.1992Z" fill="#F8F8F8"/>
<path d="M89.4136 79.1271H52.4383C48.395 79.1271 45.1173 75.3527 45.1173 70.6968C45.1173 66.0409 48.395 62.2666 52.4383 62.2666H89.5579C89.6047 62.6221 89.6289 62.9853 89.6289 63.3545V77.246C89.6289 77.8947 89.5542 78.5248 89.4136 79.1271Z" fill="#DBDBDB"/>
<rect x="88.9492" y="119.974" width="62.0465" height="20.2326" rx="5.39535" fill="#F8F8F8"/>
<path d="M101.088 130.427C101.088 128.006 103.051 126.043 105.472 126.043H150.995V134.81H105.472C103.051 134.81 101.088 132.848 101.088 130.427V130.427Z" fill="#DBDBDB"/>
<path d="M130.997 128.001H126V133.61C126 133.688 126.021 133.763 126.061 133.828C126.101 133.892 126.157 133.942 126.224 133.972C126.29 134.001 126.363 134.009 126.434 133.993C126.504 133.978 126.569 133.94 126.619 133.885L128.5 131.845L130.38 133.885C130.43 133.94 130.495 133.977 130.565 133.993C130.636 134.008 130.709 134 130.775 133.971C130.841 133.942 130.898 133.892 130.938 133.827C130.978 133.763 131 133.688 131 133.61L130.997 128.001Z" fill="#F8F8F8"/>
<path d="M45.0005 127.955C43.5055 127.955 40.5156 129.151 40.5156 133.935" stroke="#1B1916" stroke-width="2.9899" stroke-linecap="round"/>
<path d="M46.6175 127.001C45.538 125.967 42.5516 124.762 39.2422 128.217" stroke="#1B1916" stroke-width="2.9899" stroke-linecap="round"/>
<path d="M50.991 91.0195V96.6094C50.991 97.6068 50.7924 98.5942 50.4066 99.5141L49.6125 101.408C48.9349 103.023 49.2832 104.887 50.4985 106.149L51.0107 106.681C52.3852 108.109 52.3639 110.374 50.9626 111.775V111.775C49.5841 113.154 49.5379 115.374 50.8578 116.809L52.9102 119.04" stroke="#7A7A7A" stroke-width="3" stroke-linecap="round"/>
<path d="M105.884 91.0195V96.6094C105.884 97.6068 106.083 98.5942 106.468 99.5141L107.262 101.408C107.94 103.023 107.592 104.887 106.376 106.149L105.864 106.681C104.49 108.109 104.511 110.374 105.912 111.775V111.775C107.291 113.154 107.337 115.374 106.017 116.809L103.965 119.04" stroke="#7A7A7A" stroke-width="3" stroke-linecap="round"/>
<path d="M84.3385 92.2754V138.742H90.2715" stroke="#7A7A7A" stroke-width="3" stroke-linecap="round" stroke-linejoin="round"/>
<path d="M73.1771 92.1836V138.65H67.2441" stroke="#7A7A7A" stroke-width="3" stroke-linecap="round" stroke-linejoin="round"/>
<path d="M117.909 64.9147C118.15 63.6863 118.248 62.4213 118.154 61.0997C117.632 53.7038 111.604 48.1155 104.673 48.6019C102.672 48.7423 100.846 49.3598 99.2334 50.3583C97.5549 44.4648 92.2381 40.3411 86.2604 40.7605C81.9574 41.0625 78.3066 43.6487 76.2994 47.331C73.7923 44.2683 70.0165 42.4363 65.9228 42.7236C59.9451 43.1431 55.2371 47.9703 54.4268 54.0384C52.6899 53.2749 50.7715 52.9203 48.7945 53.059C41.8632 53.5454 36.6801 59.9204 37.2024 67.3163C37.281 68.4292 37.4976 69.5091 37.8038 70.536C31.3505 71.5015 26.6411 77.6336 27.1389 84.6817C27.6613 92.0776 33.6893 97.6659 40.6206 97.1795L119.005 91.679C125.936 91.1926 131.119 84.8176 130.597 77.4217C130.073 70.3288 124.476 64.8966 117.909 64.9147Z" fill="#B9B9B9"/>
<path d="M54.6843 67.1926C54.2679 66.2359 54.7357 65.1203 55.6955 64.7052L61.3455 62.3646C62.3053 61.9495 63.4244 62.4159 63.8409 63.3725C64.2574 64.3292 63.7895 65.4448 62.8297 65.8599L57.1797 68.2005C56.2089 68.5803 55.0653 68.1603 54.6843 67.1926Z" fill="#7A7A7A"/>
<path d="M99.3279 60.1945C99.6057 59.189 98.9856 58.1499 97.9769 57.873L92.0535 56.345C91.0448 56.0681 90.0023 56.6862 89.7245 57.6917C89.4467 58.6971 90.0669 59.7363 91.0755 60.0132L96.9989 61.5412C98.0136 61.7815 99.0868 61.2059 99.3279 60.1945Z" fill="#7A7A7A"/>
<rect width="8.82556" height="11.0011" rx="4.0866" transform="matrix(0.997556 -0.0698776 0.0706589 0.997501 74.1543 75.7432)" fill="black"/>
<mask id="mask0_286_10617" style="mask-type:alpha" maskUnits="userSpaceOnUse" x="74" y="75" width="10" height="12">
<rect width="8.82345" height="11.0029" rx="4.0866" transform="matrix(0.997568 -0.0697094 0.0708294 0.997489 74.1523 75.7402)" fill="black"/>
</mask>
<g mask="url(#mask0_286_10617)">
<path d="M79.715 93.1585C83.9181 92.8649 87.131 89.8885 86.8913 86.5104C86.6516 83.1322 83.0499 80.6317 78.8469 80.9252C74.6438 81.2187 71.4309 84.1952 71.6706 87.5733C71.9104 90.9515 75.512 93.452 79.715 93.1585Z" fill="#7A7A7A"/>
</g>
<path d="M63.5266 81.8102C58.1573 82.1884 55.8918 77.8478 56.0607 75.1377C57.0893 75.6948 60.3194 77.374 62.7123 77.6372C65.1053 77.9003 68.026 75.1943 68.9474 74.23C69.6356 76.34 68.4667 81.4622 63.5266 81.8102Z" fill="#7A7A7A"/>
<path d="M56.5781 74.8281C57.2739 75.7684 59.5247 77.5885 62.9613 77.3465C66.3979 77.1044 68.0133 75.0119 68.3914 73.996" stroke="black" stroke-width="2.1532" stroke-linecap="round"/>
<circle cx="3.60756" cy="3.60756" r="3.60756" transform="matrix(-0.258819 0.965926 0.965926 0.258819 50.4102 116)" stroke="#8D33FF" stroke-width="2.13564"/>
<path d="M46.741 118.751C46.4382 118.67 46.2868 118.63 46.1588 118.674C46.1064 118.693 46.0579 118.721 46.0158 118.757C45.9133 118.845 45.8727 118.997 45.7915 119.3L42.8582 130.247C42.777 130.55 42.7365 130.701 42.781 130.829C42.7993 130.882 42.8273 130.93 42.8636 130.972C42.9521 131.075 43.1035 131.115 43.4063 131.197L53.8476 133.994C55.3617 134.4 56.1188 134.603 56.7587 134.38C57.0208 134.289 57.2633 134.149 57.4734 133.967C57.9863 133.525 58.1892 132.768 58.5949 131.253L59.9231 126.296C60.3288 124.782 60.5317 124.025 60.3089 123.385C60.2176 123.123 60.0776 122.881 59.8962 122.671C59.4535 122.158 58.6964 121.955 57.1822 121.549L46.741 118.751Z" fill="#FF8833"/>
<path d="M39.3746 137.614L40.5243 136.287L41.6739 137.614C42.5277 138.599 41.8279 140.131 40.5243 140.131C39.2206 140.131 38.5208 138.599 39.3746 137.614Z" fill="#1B1916"/>
<path d="M101 44.2128C101 44.837 101.506 45.3431 102.13 45.3431H108.905C109.474 45.3431 109.936 44.8814 109.936 44.3118V44.3118C109.936 43.7422 109.474 43.2804 108.905 43.2804H104.475C104.438 43.2804 104.409 43.2508 104.409 43.2142V43.2142C104.409 43.1992 104.414 43.1847 104.423 43.1729L109.506 36.7895C109.665 36.5894 109.752 36.3412 109.752 36.0854V35.9126C109.752 35.2883 109.246 34.7822 108.622 34.7822H102.216C101.646 34.7822 101.184 35.244 101.184 35.8136V35.8136C101.184 36.3832 101.646 36.8449 102.216 36.8449H106.547C106.583 36.8449 106.613 36.8744 106.613 36.9107V36.9107C106.613 36.9259 106.607 36.9407 106.598 36.9525L101.257 43.4489C101.091 43.6511 101 43.9049 101 44.1667V44.2128Z" fill="#FF8833"/>
<path d="M110.691 39.2724C110.691 40.0399 111.314 40.6621 112.081 40.6621H120.406C121.089 40.6621 121.642 40.1085 121.642 39.4256V39.4256C121.642 38.7427 121.089 38.189 120.406 38.189H114.948C114.904 38.189 114.869 38.1536 114.869 38.11V38.11C114.869 38.0918 114.875 38.0742 114.886 38.0601L121.08 30.4503C121.298 30.1824 121.417 29.8476 121.417 29.5021V29.5021C121.417 28.6725 120.744 28 119.914 28H112.154C111.471 28 110.917 28.5536 110.917 29.2365V29.2365C110.917 29.9195 111.471 30.4731 112.154 30.4731H117.491C117.534 30.4731 117.569 30.5082 117.569 30.5516V30.5516C117.569 30.5701 117.563 30.588 117.551 30.6021L111.017 38.3784C110.807 38.6288 110.691 38.9454 110.691 39.2724V39.2724Z" fill="#FF8833"/>
<path d="M95.0763 79.846C99.3169 79.5483 102.512 75.8803 102.214 71.6534C101.915 67.4265 98.2352 64.2413 93.9946 64.539C89.754 64.8368 86.5586 68.5047 86.8573 72.7316C87.156 76.9585 90.8358 80.1438 95.0763 79.846Z" fill="white"/>
<path d="M94.941 78.0584C98.1904 77.8303 100.639 75.0196 100.41 71.7806C100.181 68.5417 97.3615 66.1009 94.1121 66.3291C90.8627 66.5572 88.4141 69.3679 88.643 72.6069C88.8719 75.8458 91.6916 78.2866 94.941 78.0584Z" fill="black"/>
<path fill-rule="evenodd" clip-rule="evenodd" d="M101.587 75.2814C100.473 77.8025 98.0292 79.6392 95.0804 79.8463C92.0545 80.0587 89.3141 78.4977 87.8839 76.0502C89.4239 74.7548 91.7781 73.8372 94.4646 73.648C97.2964 73.4485 99.8761 74.1021 101.587 75.2814Z" fill="#7A7A7A"/>
<path d="M29.4634 173V158.455H39.0941V160.99H32.5387V164.456H38.4549V166.991H32.5387V173H29.4634ZM47.418 168.355V162.091H50.4435V173H47.5387V171.018H47.4251C47.1789 171.658 46.7693 172.171 46.1964 172.56C45.6282 172.948 44.9345 173.142 44.1154 173.142C43.3862 173.142 42.7447 172.976 42.1907 172.645C41.6367 172.313 41.2035 171.842 40.891 171.232C40.5832 170.621 40.427 169.889 40.4222 169.037V162.091H43.4478V168.497C43.4525 169.141 43.6254 169.65 43.9663 170.024C44.3072 170.398 44.7641 170.585 45.337 170.585C45.7016 170.585 46.0425 170.502 46.3597 170.337C46.677 170.166 46.9326 169.915 47.1268 169.584C47.3256 169.252 47.4227 168.843 47.418 168.355ZM55.8892 158.455V173H52.8636V158.455H55.8892ZM61.3384 158.455V173H58.3129V158.455H61.3384ZM68.4478 173V158.455H71.4734V163.923H71.5657C71.6983 163.63 71.89 163.331 72.141 163.028C72.3967 162.721 72.7281 162.465 73.1353 162.261C73.5472 162.053 74.0586 161.949 74.6694 161.949C75.4648 161.949 76.1987 162.157 76.8711 162.574C77.5434 162.986 78.0808 163.608 78.4833 164.442C78.8858 165.27 79.087 166.31 79.087 167.56C79.087 168.777 78.8905 169.804 78.4975 170.642C78.1093 171.475 77.579 172.107 76.9066 172.538C76.239 172.964 75.4909 173.178 74.6623 173.178C74.0752 173.178 73.5756 173.08 73.1637 172.886C72.7565 172.692 72.4227 172.448 72.1623 172.155C71.9019 171.857 71.703 171.556 71.5657 171.253H71.4308V173H68.4478ZM71.4094 167.545C71.4094 168.194 71.4994 168.76 71.6793 169.243C71.8593 169.726 72.1197 170.102 72.4606 170.372C72.8015 170.637 73.2158 170.77 73.7035 170.77C74.1959 170.77 74.6126 170.635 74.9535 170.365C75.2944 170.09 75.5524 169.712 75.7276 169.229C75.9076 168.741 75.9975 168.18 75.9975 167.545C75.9975 166.916 75.9099 166.362 75.7347 165.884C75.5595 165.405 75.3015 165.031 74.9606 164.761C74.6197 164.491 74.2006 164.357 73.7035 164.357C73.2111 164.357 72.7944 164.487 72.4535 164.747C72.1173 165.008 71.8593 165.377 71.6793 165.855C71.4994 166.333 71.4094 166.897 71.4094 167.545ZM86.0348 173.213C84.9316 173.213 83.9775 172.979 83.1726 172.51C82.3724 172.036 81.7545 171.378 81.3189 170.536C80.8833 169.688 80.6655 168.705 80.6655 167.588C80.6655 166.461 80.8833 165.476 81.3189 164.634C81.7545 163.786 82.3724 163.128 83.1726 162.659C83.9775 162.186 84.9316 161.949 86.0348 161.949C87.138 161.949 88.0897 162.186 88.8899 162.659C89.6948 163.128 90.3151 163.786 90.7507 164.634C91.1863 165.476 91.4041 166.461 91.4041 167.588C91.4041 168.705 91.1863 169.688 90.7507 170.536C90.3151 171.378 89.6948 172.036 88.8899 172.51C88.0897 172.979 87.138 173.213 86.0348 173.213ZM86.049 170.869C86.5509 170.869 86.9699 170.727 87.3061 170.443C87.6423 170.154 87.8956 169.761 88.0661 169.264C88.2412 168.767 88.3288 168.201 88.3288 167.567C88.3288 166.932 88.2412 166.366 88.0661 165.869C87.8956 165.372 87.6423 164.979 87.3061 164.69C86.9699 164.402 86.5509 164.257 86.049 164.257C85.5424 164.257 85.1162 164.402 84.7706 164.69C84.4297 164.979 84.1716 165.372 83.9964 165.869C83.826 166.366 83.7408 166.932 83.7408 167.567C83.7408 168.201 83.826 168.767 83.9964 169.264C84.1716 169.761 84.4297 170.154 84.7706 170.443C85.1162 170.727 85.5424 170.869 86.049 170.869ZM98.3004 173.213C97.1972 173.213 96.2431 172.979 95.4382 172.51C94.638 172.036 94.0201 171.378 93.5845 170.536C93.1489 169.688 92.9311 168.705 92.9311 167.588C92.9311 166.461 93.1489 165.476 93.5845 164.634C94.0201 163.786 94.638 163.128 95.4382 162.659C96.2431 162.186 97.1972 161.949 98.3004 161.949C99.4036 161.949 100.355 162.186 101.156 162.659C101.96 163.128 102.581 163.786 103.016 164.634C103.452 165.476 103.67 166.461 103.67 167.588C103.67 168.705 103.452 169.688 103.016 170.536C102.581 171.378 101.96 172.036 101.156 172.51C100.355 172.979 99.4036 173.213 98.3004 173.213ZM98.3146 170.869C98.8165 170.869 99.2356 170.727 99.5717 170.443C99.9079 170.154 100.161 169.761 100.332 169.264C100.507 168.767 100.594 168.201 100.594 167.567C100.594 166.932 100.507 166.366 100.332 165.869C100.161 165.372 99.9079 164.979 99.5717 164.69C99.2356 164.402 98.8165 164.257 98.3146 164.257C97.808 164.257 97.3819 164.402 97.0362 164.69C96.6953 164.979 96.4373 165.372 96.2621 165.869C96.0916 166.366 96.0064 166.932 96.0064 167.567C96.0064 168.201 96.0916 168.767 96.2621 169.264C96.4373 169.761 96.6953 170.154 97.0362 170.443C97.3819 170.727 97.808 170.869 98.3146 170.869ZM108.379 169.861L108.386 166.232H108.826L112.32 162.091H115.793L111.099 167.574H110.381L108.379 169.861ZM105.637 173V158.455H108.663V173H105.637ZM112.455 173L109.245 168.249L111.262 166.111L115.999 173H112.455ZM126.354 165.202L123.585 165.372C123.537 165.135 123.435 164.922 123.279 164.733C123.123 164.539 122.917 164.385 122.661 164.271C122.41 164.153 122.11 164.094 121.759 164.094C121.29 164.094 120.895 164.193 120.573 164.392C120.251 164.586 120.09 164.847 120.09 165.173C120.09 165.434 120.194 165.654 120.403 165.834C120.611 166.014 120.969 166.158 121.475 166.267L123.45 166.665C124.51 166.883 125.301 167.233 125.822 167.716C126.343 168.199 126.603 168.833 126.603 169.619C126.603 170.334 126.392 170.962 125.971 171.501C125.554 172.041 124.981 172.463 124.252 172.766C123.528 173.064 122.692 173.213 121.745 173.213C120.301 173.213 119.15 172.912 118.293 172.311C117.441 171.705 116.942 170.881 116.795 169.839L119.771 169.683C119.861 170.124 120.078 170.46 120.424 170.692C120.77 170.919 121.212 171.033 121.752 171.033C122.282 171.033 122.709 170.931 123.031 170.727C123.357 170.519 123.523 170.251 123.528 169.925C123.523 169.65 123.407 169.425 123.18 169.25C122.952 169.07 122.602 168.933 122.129 168.838L120.239 168.462C119.174 168.249 118.381 167.879 117.86 167.354C117.344 166.828 117.086 166.158 117.086 165.344C117.086 164.643 117.275 164.039 117.654 163.533C118.038 163.026 118.575 162.635 119.266 162.361C119.962 162.086 120.777 161.949 121.71 161.949C123.087 161.949 124.172 162.24 124.962 162.822C125.758 163.405 126.222 164.198 126.354 165.202Z" fill="black"/>
<path d="M24.1243 189.273V190.409H19.6016V189.273H24.1243ZM20.9197 187.182H22.2607V195.5C22.2607 195.879 22.3156 196.163 22.4254 196.352C22.5391 196.538 22.683 196.663 22.8572 196.727C23.0353 196.788 23.2228 196.818 23.4197 196.818C23.5675 196.818 23.6887 196.811 23.7834 196.795C23.8781 196.777 23.9538 196.761 24.0107 196.75L24.2834 197.955C24.1925 197.989 24.0656 198.023 23.9027 198.057C23.7398 198.095 23.5334 198.114 23.2834 198.114C22.9046 198.114 22.5334 198.032 22.1697 197.869C21.8099 197.706 21.5107 197.458 21.272 197.125C21.0372 196.792 20.9197 196.371 20.9197 195.864V187.182ZM29.593 198.182C28.8052 198.182 28.1139 197.994 27.5192 197.619C26.9283 197.244 26.4661 196.72 26.1328 196.045C25.8033 195.371 25.6385 194.583 25.6385 193.682C25.6385 192.773 25.8033 191.979 26.1328 191.301C26.4661 190.623 26.9283 190.097 27.5192 189.722C28.1139 189.347 28.8052 189.159 29.593 189.159C30.3809 189.159 31.0703 189.347 31.6612 189.722C32.2559 190.097 32.718 190.623 33.0476 191.301C33.3809 191.979 33.5476 192.773 33.5476 193.682C33.5476 194.583 33.3809 195.371 33.0476 196.045C32.718 196.72 32.2559 197.244 31.6612 197.619C31.0703 197.994 30.3809 198.182 29.593 198.182ZM29.593 196.977C30.1915 196.977 30.6839 196.824 31.0703 196.517C31.4567 196.21 31.7427 195.807 31.9283 195.307C32.1139 194.807 32.2067 194.265 32.2067 193.682C32.2067 193.098 32.1139 192.555 31.9283 192.051C31.7427 191.547 31.4567 191.14 31.0703 190.83C30.6839 190.519 30.1915 190.364 29.593 190.364C28.9946 190.364 28.5021 190.519 28.1158 190.83C27.7294 191.14 27.4434 191.547 27.2578 192.051C27.0722 192.555 26.9794 193.098 26.9794 193.682C26.9794 194.265 27.0722 194.807 27.2578 195.307C27.4434 195.807 27.7294 196.21 28.1158 196.517C28.5021 196.824 28.9946 196.977 29.593 196.977ZM39.1399 198.182C38.352 198.182 37.6607 197.994 37.0661 197.619C36.4751 197.244 36.013 196.72 35.6797 196.045C35.3501 195.371 35.1854 194.583 35.1854 193.682C35.1854 192.773 35.3501 191.979 35.6797 191.301C36.013 190.623 36.4751 190.097 37.0661 189.722C37.6607 189.347 38.352 189.159 39.1399 189.159C39.9278 189.159 40.6172 189.347 41.2081 189.722C41.8028 190.097 42.2649 190.623 42.5945 191.301C42.9278 191.979 43.0945 192.773 43.0945 193.682C43.0945 194.583 42.9278 195.371 42.5945 196.045C42.2649 196.72 41.8028 197.244 41.2081 197.619C40.6172 197.994 39.9278 198.182 39.1399 198.182ZM39.1399 196.977C39.7384 196.977 40.2308 196.824 40.6172 196.517C41.0036 196.21 41.2895 195.807 41.4751 195.307C41.6607 194.807 41.7536 194.265 41.7536 193.682C41.7536 193.098 41.6607 192.555 41.4751 192.051C41.2895 191.547 41.0036 191.14 40.6172 190.83C40.2308 190.519 39.7384 190.364 39.1399 190.364C38.5414 190.364 38.049 190.519 37.6626 190.83C37.2763 191.14 36.9903 191.547 36.8047 192.051C36.6191 192.555 36.5263 193.098 36.5263 193.682C36.5263 194.265 36.6191 194.807 36.8047 195.307C36.9903 195.807 37.2763 196.21 37.6626 196.517C38.049 196.824 38.5414 196.977 39.1399 196.977ZM49.6413 198V189.273H50.9368V190.636H51.0504C51.2322 190.17 51.5258 189.809 51.9311 189.551C52.3364 189.29 52.8232 189.159 53.3913 189.159C53.9671 189.159 54.4463 189.29 54.8288 189.551C55.2152 189.809 55.5163 190.17 55.7322 190.636H55.8232C56.0466 190.186 56.3819 189.828 56.8288 189.562C57.2758 189.294 57.8118 189.159 58.4368 189.159C59.2171 189.159 59.8554 189.403 60.3516 189.892C60.8478 190.377 61.0959 191.133 61.0959 192.159V198H59.755V192.159C59.755 191.515 59.5788 191.055 59.2266 190.778C58.8743 190.502 58.4595 190.364 57.9822 190.364C57.3686 190.364 56.8932 190.549 56.5561 190.92C56.219 191.288 56.0504 191.754 56.0504 192.318V198H54.6868V192.023C54.6868 191.527 54.5258 191.127 54.2038 190.824C53.8819 190.517 53.4671 190.364 52.9595 190.364C52.611 190.364 52.2853 190.456 51.9822 190.642C51.683 190.828 51.4406 191.085 51.255 191.415C51.0732 191.741 50.9822 192.117 50.9822 192.545V198H49.6413ZM66.1158 198.205C65.5627 198.205 65.0608 198.1 64.6101 197.892C64.1593 197.68 63.8014 197.375 63.5362 196.977C63.2711 196.576 63.1385 196.091 63.1385 195.523C63.1385 195.023 63.237 194.617 63.4339 194.307C63.6309 193.992 63.8942 193.746 64.2237 193.568C64.5533 193.39 64.9169 193.258 65.3146 193.17C65.7161 193.08 66.1196 193.008 66.5249 192.955C67.0552 192.886 67.4851 192.835 67.8146 192.801C68.148 192.763 68.3904 192.701 68.5419 192.614C68.6972 192.527 68.7749 192.375 68.7749 192.159V192.114C68.7749 191.553 68.6214 191.117 68.3146 190.807C68.0116 190.496 67.5514 190.341 66.9339 190.341C66.2938 190.341 65.7919 190.481 65.4283 190.761C65.0646 191.042 64.8089 191.341 64.6612 191.659L63.3885 191.205C63.6158 190.674 63.9188 190.261 64.2976 189.966C64.6802 189.667 65.0968 189.458 65.5476 189.341C66.0021 189.22 66.4491 189.159 66.8885 189.159C67.1688 189.159 67.4908 189.193 67.8544 189.261C68.2218 189.326 68.576 189.46 68.9169 189.665C69.2616 189.869 69.5476 190.178 69.7749 190.591C70.0021 191.004 70.1158 191.557 70.1158 192.25V198H68.7749V196.818H68.7067C68.6158 197.008 68.4643 197.21 68.2521 197.426C68.04 197.642 67.7578 197.826 67.4055 197.977C67.0533 198.129 66.6233 198.205 66.1158 198.205ZM66.3203 197C66.8506 197 67.2976 196.896 67.6612 196.688C68.0286 196.479 68.3052 196.21 68.4908 195.881C68.6802 195.551 68.7749 195.205 68.7749 194.841V193.614C68.718 193.682 68.593 193.744 68.3999 193.801C68.2105 193.854 67.9908 193.902 67.7408 193.943C67.4946 193.981 67.254 194.015 67.0192 194.045C66.7881 194.072 66.6006 194.095 66.4567 194.114C66.1082 194.159 65.7824 194.233 65.4794 194.335C65.1802 194.434 64.9377 194.583 64.7521 194.784C64.5703 194.981 64.4794 195.25 64.4794 195.591C64.4794 196.057 64.6518 196.409 64.9964 196.648C65.3449 196.883 65.7862 197 66.3203 197ZM73.9041 192.75V198H72.5632V189.273H73.8587V190.636H73.9723C74.1768 190.193 74.4875 189.837 74.9041 189.568C75.3208 189.295 75.8587 189.159 76.5178 189.159C77.1087 189.159 77.6257 189.28 78.0689 189.523C78.5121 189.761 78.8568 190.125 79.103 190.614C79.3492 191.098 79.4723 191.712 79.4723 192.455V198H78.1314V192.545C78.1314 191.86 77.9534 191.326 77.5973 190.943C77.2412 190.557 76.7526 190.364 76.1314 190.364C75.7034 190.364 75.3208 190.456 74.9837 190.642C74.6503 190.828 74.3871 191.098 74.1939 191.455C74.0007 191.811 73.9041 192.242 73.9041 192.75ZM82.4737 201.273C82.2464 201.273 82.0438 201.254 81.8658 201.216C81.6877 201.182 81.5646 201.148 81.4964 201.114L81.8374 199.932C82.1631 200.015 82.451 200.045 82.701 200.023C82.951 200 83.1726 199.888 83.3658 199.688C83.5627 199.491 83.7427 199.17 83.9055 198.727L84.1555 198.045L80.9283 189.273H82.3828L84.7919 196.227H84.8828L87.2919 189.273H88.7464L85.0419 199.273C84.8752 199.723 84.6688 200.097 84.4226 200.392C84.1764 200.691 83.8904 200.913 83.5646 201.057C83.2427 201.201 82.879 201.273 82.4737 201.273ZM96.3572 192.75V198H95.0163V186.364H96.3572V190.636H96.4709C96.6754 190.186 96.9822 189.828 97.3913 189.562C97.8042 189.294 98.3535 189.159 99.0391 189.159C99.6338 189.159 100.155 189.278 100.602 189.517C101.049 189.752 101.395 190.114 101.641 190.602C101.891 191.087 102.016 191.705 102.016 192.455V198H100.675V192.545C100.675 191.852 100.496 191.316 100.136 190.938C99.7796 190.555 99.2853 190.364 98.6527 190.364C98.2133 190.364 97.8194 190.456 97.4709 190.642C97.1262 190.828 96.8535 191.098 96.6527 191.455C96.4557 191.811 96.3572 192.242 96.3572 192.75ZM108.015 198.182C107.227 198.182 106.536 197.994 105.941 197.619C105.35 197.244 104.888 196.72 104.555 196.045C104.225 195.371 104.06 194.583 104.06 193.682C104.06 192.773 104.225 191.979 104.555 191.301C104.888 190.623 105.35 190.097 105.941 189.722C106.536 189.347 107.227 189.159 108.015 189.159C108.803 189.159 109.492 189.347 110.083 189.722C110.678 190.097 111.14 190.623 111.469 191.301C111.803 191.979 111.969 192.773 111.969 193.682C111.969 194.583 111.803 195.371 111.469 196.045C111.14 196.72 110.678 197.244 110.083 197.619C109.492 197.994 108.803 198.182 108.015 198.182ZM108.015 196.977C108.613 196.977 109.106 196.824 109.492 196.517C109.879 196.21 110.165 195.807 110.35 195.307C110.536 194.807 110.629 194.265 110.629 193.682C110.629 193.098 110.536 192.555 110.35 192.051C110.165 191.547 109.879 191.14 109.492 190.83C109.106 190.519 108.613 190.364 108.015 190.364C107.416 190.364 106.924 190.519 106.538 190.83C106.151 191.14 105.865 191.547 105.68 192.051C105.494 192.555 105.401 193.098 105.401 193.682C105.401 194.265 105.494 194.807 105.68 195.307C105.865 195.807 106.151 196.21 106.538 196.517C106.924 196.824 107.416 196.977 108.015 196.977ZM119.516 194.432V189.273H120.857V198H119.516V196.523H119.425C119.221 196.966 118.903 197.343 118.471 197.653C118.039 197.96 117.494 198.114 116.835 198.114C116.289 198.114 115.804 197.994 115.38 197.756C114.956 197.513 114.622 197.15 114.38 196.665C114.138 196.176 114.016 195.561 114.016 194.818V189.273H115.357V194.727C115.357 195.364 115.535 195.871 115.891 196.25C116.251 196.629 116.71 196.818 117.266 196.818C117.6 196.818 117.939 196.733 118.283 196.562C118.632 196.392 118.924 196.131 119.158 195.778C119.397 195.426 119.516 194.977 119.516 194.432ZM123.313 198V189.273H124.609V190.591H124.7C124.859 190.159 125.147 189.809 125.563 189.54C125.98 189.271 126.45 189.136 126.972 189.136C127.071 189.136 127.194 189.138 127.342 189.142C127.489 189.146 127.601 189.152 127.677 189.159V190.523C127.631 190.511 127.527 190.494 127.364 190.472C127.205 190.445 127.037 190.432 126.859 190.432C126.434 190.432 126.056 190.521 125.722 190.699C125.393 190.873 125.131 191.116 124.938 191.426C124.749 191.733 124.654 192.083 124.654 192.477V198H123.313ZM135.448 191.227L134.244 191.568C134.168 191.367 134.056 191.172 133.908 190.983C133.764 190.79 133.567 190.631 133.317 190.506C133.067 190.381 132.747 190.318 132.357 190.318C131.823 190.318 131.378 190.441 131.022 190.688C130.67 190.93 130.494 191.239 130.494 191.614C130.494 191.947 130.615 192.21 130.857 192.403C131.1 192.597 131.478 192.758 131.994 192.886L133.289 193.205C134.069 193.394 134.651 193.684 135.033 194.074C135.416 194.46 135.607 194.958 135.607 195.568C135.607 196.068 135.463 196.515 135.175 196.909C134.891 197.303 134.494 197.614 133.982 197.841C133.471 198.068 132.876 198.182 132.198 198.182C131.308 198.182 130.571 197.989 129.988 197.602C129.405 197.216 129.035 196.652 128.88 195.909L130.153 195.591C130.274 196.061 130.503 196.413 130.84 196.648C131.181 196.883 131.626 197 132.175 197C132.8 197 133.297 196.867 133.664 196.602C134.035 196.333 134.221 196.011 134.221 195.636C134.221 195.333 134.115 195.08 133.903 194.875C133.691 194.667 133.365 194.511 132.925 194.409L131.471 194.068C130.672 193.879 130.085 193.585 129.71 193.188C129.338 192.786 129.153 192.284 129.153 191.682C129.153 191.189 129.291 190.754 129.567 190.375C129.848 189.996 130.228 189.699 130.71 189.483C131.194 189.267 131.744 189.159 132.357 189.159C133.221 189.159 133.899 189.348 134.391 189.727C134.888 190.106 135.24 190.606 135.448 191.227Z" fill="black"/>
<path d="M171.5 108.364L155.5 0V216L171.5 108.364Z" fill="#E9E9E9"/>
<g clip-path="url(#clip1_286_10617)">
<rect width="155.5" height="140" transform="translate(171.5 12)" fill="#FFF6DF"/>
<path d="M194.5 29L186.5 37L182.5 33" stroke="#D0CAB9" stroke-width="2" stroke-linejoin="round"/>
<path d="M206.599 35.42C207.239 34.8867 207.749 34.4433 208.129 34.09C208.509 33.73 208.826 33.3567 209.079 32.97C209.332 32.5833 209.459 32.2033 209.459 31.83C209.459 31.49 209.379 31.2233 209.219 31.03C209.059 30.8367 208.812 30.74 208.479 30.74C208.146 30.74 207.889 30.8533 207.709 31.08C207.529 31.3 207.436 31.6033 207.429 31.99H206.069C206.096 31.19 206.332 30.5833 206.779 30.17C207.232 29.7567 207.806 29.55 208.499 29.55C209.259 29.55 209.842 29.7533 210.249 30.16C210.656 30.56 210.859 31.09 210.859 31.75C210.859 32.27 210.719 32.7667 210.439 33.24C210.159 33.7133 209.839 34.1267 209.479 34.48C209.119 34.8267 208.649 35.2467 208.069 35.74H211.019V36.9H206.079V35.86L206.599 35.42Z" fill="#D0CAB9"/>
<path d="M226.057 31.63C226.09 30.9633 226.324 30.45 226.757 30.09C227.197 29.7233 227.774 29.54 228.487 29.54C228.974 29.54 229.39 29.6267 229.737 29.8C230.084 29.9667 230.344 30.1967 230.517 30.49C230.697 30.7767 230.787 31.1033 230.787 31.47C230.787 31.89 230.677 32.2467 230.457 32.54C230.244 32.8267 229.987 33.02 229.687 33.12V33.16C230.074 33.28 230.374 33.4933 230.587 33.8C230.807 34.1067 230.917 34.5 230.917 34.98C230.917 35.38 230.824 35.7367 230.637 36.05C230.457 36.3633 230.187 36.61 229.827 36.79C229.474 36.9633 229.047 37.05 228.547 37.05C227.794 37.05 227.18 36.86 226.707 36.48C226.234 36.1 225.984 35.54 225.957 34.8H227.317C227.33 35.1267 227.44 35.39 227.647 35.59C227.86 35.7833 228.15 35.88 228.517 35.88C228.857 35.88 229.117 35.7867 229.297 35.6C229.484 35.4067 229.577 35.16 229.577 34.86C229.577 34.46 229.45 34.1733 229.197 34C228.944 33.8267 228.55 33.74 228.017 33.74H227.727V32.59H228.017C228.964 32.59 229.437 32.2733 229.437 31.64C229.437 31.3533 229.35 31.13 229.177 30.97C229.01 30.81 228.767 30.73 228.447 30.73C228.134 30.73 227.89 30.8167 227.717 30.99C227.55 31.1567 227.454 31.37 227.427 31.63H226.057Z" fill="#D0CAB9"/>
<path d="M246.164 35.58V34.48L249.434 29.8H251.064V34.36H251.944V35.58H251.064V37H249.664V35.58H246.164ZM249.754 31.3L247.704 34.36H249.754V31.3Z" fill="#D0CAB9"/>
<path d="M271.212 30.92H267.972V32.63C268.112 32.4567 268.312 32.3167 268.572 32.21C268.832 32.0967 269.109 32.04 269.402 32.04C269.936 32.04 270.372 32.1567 270.712 32.39C271.052 32.6233 271.299 32.9233 271.452 33.29C271.606 33.65 271.682 34.0367 271.682 34.45C271.682 35.2167 271.462 35.8333 271.022 36.3C270.589 36.7667 269.969 37 269.162 37C268.402 37 267.796 36.81 267.342 36.43C266.889 36.05 266.632 35.5533 266.572 34.94H267.932C267.992 35.2067 268.126 35.42 268.332 35.58C268.546 35.74 268.816 35.82 269.142 35.82C269.536 35.82 269.832 35.6967 270.032 35.45C270.232 35.2033 270.332 34.8767 270.332 34.47C270.332 34.0567 270.229 33.7433 270.022 33.53C269.822 33.31 269.526 33.2 269.132 33.2C268.852 33.2 268.619 33.27 268.432 33.41C268.246 33.55 268.112 33.7367 268.032 33.97H266.692V29.69H271.212V30.92Z" fill="#D0CAB9"/>
<path d="M290.112 31.53C290.045 31.25 289.928 31.04 289.762 30.9C289.602 30.76 289.368 30.69 289.062 30.69C288.602 30.69 288.262 30.8767 288.042 31.25C287.828 31.6167 287.718 32.2167 287.712 33.05C287.872 32.7833 288.105 32.5767 288.412 32.43C288.718 32.2767 289.052 32.2 289.412 32.2C289.845 32.2 290.228 32.2933 290.562 32.48C290.895 32.6667 291.155 32.94 291.342 33.3C291.528 33.6533 291.622 34.08 291.622 34.58C291.622 35.0533 291.525 35.4767 291.332 35.85C291.145 36.2167 290.868 36.5033 290.502 36.71C290.135 36.9167 289.698 37.02 289.192 37.02C288.498 37.02 287.952 36.8667 287.552 36.56C287.158 36.2533 286.882 35.8267 286.722 35.28C286.568 34.7267 286.492 34.0467 286.492 33.24C286.492 32.02 286.702 31.1 287.122 30.48C287.542 29.8533 288.205 29.54 289.112 29.54C289.812 29.54 290.355 29.73 290.742 30.11C291.128 30.49 291.352 30.9633 291.412 31.53H290.112ZM289.092 33.35C288.738 33.35 288.442 33.4533 288.202 33.66C287.962 33.8667 287.842 34.1667 287.842 34.56C287.842 34.9533 287.952 35.2633 288.172 35.49C288.398 35.7167 288.715 35.83 289.122 35.83C289.482 35.83 289.765 35.72 289.972 35.5C290.185 35.28 290.292 34.9833 290.292 34.61C290.292 34.2233 290.188 33.9167 289.982 33.69C289.782 33.4633 289.485 33.35 289.092 33.35Z" fill="#D0CAB9"/>
<path d="M310.931 30.77L308.271 37H306.851L309.531 30.93H306.111V29.73H310.931V30.77Z" fill="#D0CAB9"/>
<path d="M187.537 60.14C186.87 59.7933 186.537 59.2567 186.537 58.53C186.537 58.17 186.627 57.8433 186.807 57.55C186.994 57.25 187.27 57.0133 187.637 56.84C188.01 56.66 188.464 56.57 188.997 56.57C189.53 56.57 189.98 56.66 190.347 56.84C190.72 57.0133 190.997 57.25 191.177 57.55C191.364 57.8433 191.457 58.17 191.457 58.53C191.457 58.8967 191.367 59.22 191.187 59.5C191.007 59.7733 190.767 59.9867 190.467 60.14C190.834 60.3 191.12 60.5333 191.327 60.84C191.534 61.1467 191.637 61.51 191.637 61.93C191.637 62.3833 191.52 62.78 191.287 63.12C191.06 63.4533 190.747 63.71 190.347 63.89C189.947 64.07 189.497 64.16 188.997 64.16C188.497 64.16 188.047 64.07 187.647 63.89C187.254 63.71 186.94 63.4533 186.707 63.12C186.48 62.78 186.367 62.3833 186.367 61.93C186.367 61.51 186.47 61.1467 186.677 60.84C186.884 60.5267 187.17 60.2933 187.537 60.14ZM190.097 58.73C190.097 58.4033 189.997 58.15 189.797 57.97C189.604 57.79 189.337 57.7 188.997 57.7C188.664 57.7 188.397 57.79 188.197 57.97C188.004 58.15 187.907 58.4067 187.907 58.74C187.907 59.04 188.007 59.28 188.207 59.46C188.414 59.64 188.677 59.73 188.997 59.73C189.317 59.73 189.58 59.64 189.787 59.46C189.994 59.2733 190.097 59.03 190.097 58.73ZM188.997 60.75C188.617 60.75 188.307 60.8467 188.067 61.04C187.834 61.2333 187.717 61.51 187.717 61.87C187.717 62.2033 187.83 62.4767 188.057 62.69C188.29 62.8967 188.604 63 188.997 63C189.39 63 189.7 62.8933 189.927 62.68C190.154 62.4667 190.267 62.1967 190.267 61.87C190.267 61.5167 190.15 61.2433 189.917 61.05C189.684 60.85 189.377 60.75 188.997 60.75Z" fill="#D0CAB9"/>
<path d="M208.02 61.95C208.073 62.2433 208.193 62.47 208.38 62.63C208.573 62.7833 208.83 62.86 209.15 62.86C209.563 62.86 209.863 62.69 210.05 62.35C210.237 62.0033 210.33 61.4233 210.33 60.61C210.177 60.8233 209.96 60.99 209.68 61.11C209.407 61.23 209.11 61.29 208.79 61.29C208.363 61.29 207.977 61.2033 207.63 61.03C207.29 60.85 207.02 60.5867 206.82 60.24C206.62 59.8867 206.52 59.46 206.52 58.96C206.52 58.22 206.74 57.6333 207.18 57.2C207.62 56.76 208.22 56.54 208.98 56.54C209.927 56.54 210.593 56.8433 210.98 57.45C211.373 58.0567 211.57 58.97 211.57 60.19C211.57 61.0567 211.493 61.7667 211.34 62.32C211.193 62.8733 210.937 63.2933 210.57 63.58C210.21 63.8667 209.717 64.01 209.09 64.01C208.597 64.01 208.177 63.9167 207.83 63.73C207.483 63.5367 207.217 63.2867 207.03 62.98C206.85 62.6667 206.747 62.3233 206.72 61.95H208.02ZM209.08 60.15C209.427 60.15 209.7 60.0433 209.9 59.83C210.1 59.6167 210.2 59.33 210.2 58.97C210.2 58.5767 210.093 58.2733 209.88 58.06C209.673 57.84 209.39 57.73 209.03 57.73C208.67 57.73 208.383 57.8433 208.17 58.07C207.963 58.29 207.86 58.5833 207.86 58.95C207.86 59.3033 207.96 59.5933 208.16 59.82C208.367 60.04 208.673 60.15 209.08 60.15Z" fill="#D0CAB9"/>
<path d="M224.316 58V56.71H226.726V64H225.286V58H224.316ZM228.109 60.26C228.109 59.1067 228.316 58.2033 228.729 57.55C229.149 56.8967 229.842 56.57 230.809 56.57C231.776 56.57 232.466 56.8967 232.879 57.55C233.299 58.2033 233.509 59.1067 233.509 60.26C233.509 61.42 233.299 62.33 232.879 62.99C232.466 63.65 231.776 63.98 230.809 63.98C229.842 63.98 229.149 63.65 228.729 62.99C228.316 62.33 228.109 61.42 228.109 60.26ZM232.129 60.26C232.129 59.7667 232.096 59.3533 232.029 59.02C231.969 58.68 231.842 58.4033 231.649 58.19C231.462 57.9767 231.182 57.87 230.809 57.87C230.436 57.87 230.152 57.9767 229.959 58.19C229.772 58.4033 229.646 58.68 229.579 59.02C229.519 59.3533 229.489 59.7667 229.489 60.26C229.489 60.7667 229.519 61.1933 229.579 61.54C229.639 61.88 229.766 62.1567 229.959 62.37C230.152 62.5767 230.436 62.68 230.809 62.68C231.182 62.68 231.466 62.5767 231.659 62.37C231.852 62.1567 231.979 61.88 232.039 61.54C232.099 61.1933 232.129 60.7667 232.129 60.26Z" fill="#D0CAB9"/>
<path d="M245.237 58V56.71H247.647V64H246.207V58H245.237ZM248.86 58V56.71H251.27V64H249.83V58H248.86Z" fill="#D0CAB9"/>
<path d="M264.177 58V56.71H266.587V64H265.147V58H264.177ZM268.41 62.42C269.05 61.8867 269.56 61.4433 269.94 61.09C270.32 60.73 270.637 60.3567 270.89 59.97C271.144 59.5833 271.27 59.2033 271.27 58.83C271.27 58.49 271.19 58.2233 271.03 58.03C270.87 57.8367 270.624 57.74 270.29 57.74C269.957 57.74 269.7 57.8533 269.52 58.08C269.34 58.3 269.247 58.6033 269.24 58.99H267.88C267.907 58.19 268.144 57.5833 268.59 57.17C269.044 56.7567 269.617 56.55 270.31 56.55C271.07 56.55 271.654 56.7533 272.06 57.16C272.467 57.56 272.67 58.09 272.67 58.75C272.67 59.27 272.53 59.7667 272.25 60.24C271.97 60.7133 271.65 61.1267 271.29 61.48C270.93 61.8267 270.46 62.2467 269.88 62.74H272.83V63.9H267.89V62.86L268.41 62.42Z" fill="#D0CAB9"/>
<path d="M284.055 58V56.71H286.465V64H285.025V58H284.055ZM287.868 58.63C287.902 57.9633 288.135 57.45 288.568 57.09C289.008 56.7233 289.585 56.54 290.298 56.54C290.785 56.54 291.202 56.6267 291.548 56.8C291.895 56.9667 292.155 57.1967 292.328 57.49C292.508 57.7767 292.598 58.1033 292.598 58.47C292.598 58.89 292.488 59.2467 292.268 59.54C292.055 59.8267 291.798 60.02 291.498 60.12V60.16C291.885 60.28 292.185 60.4933 292.398 60.8C292.618 61.1067 292.728 61.5 292.728 61.98C292.728 62.38 292.635 62.7367 292.448 63.05C292.268 63.3633 291.998 63.61 291.638 63.79C291.285 63.9633 290.858 64.05 290.358 64.05C289.605 64.05 288.992 63.86 288.518 63.48C288.045 63.1 287.795 62.54 287.768 61.8H289.128C289.142 62.1267 289.252 62.39 289.458 62.59C289.672 62.7833 289.962 62.88 290.328 62.88C290.668 62.88 290.928 62.7867 291.108 62.6C291.295 62.4067 291.388 62.16 291.388 61.86C291.388 61.46 291.262 61.1733 291.008 61C290.755 60.8267 290.362 60.74 289.828 60.74H289.538V59.59H289.828C290.775 59.59 291.248 59.2733 291.248 58.64C291.248 58.3533 291.162 58.13 290.988 57.97C290.822 57.81 290.578 57.73 290.258 57.73C289.945 57.73 289.702 57.8167 289.528 57.99C289.362 58.1567 289.265 58.37 289.238 58.63H287.868Z" fill="#D0CAB9"/>
<path d="M304.243 58V56.71H306.653V64H305.213V58H304.243ZM307.976 62.58V61.48L311.246 56.8H312.876V61.36H313.756V62.58H312.876V64H311.476V62.58H307.976ZM311.566 58.3L309.516 61.36H311.566V58.3Z" fill="#D0CAB9"/>
<path d="M184.331 85V83.71H186.741V91H185.301V85H184.331ZM193.024 84.92H189.784V86.63C189.924 86.4567 190.124 86.3167 190.384 86.21C190.644 86.0967 190.92 86.04 191.214 86.04C191.747 86.04 192.184 86.1567 192.524 86.39C192.864 86.6233 193.11 86.9233 193.264 87.29C193.417 87.65 193.494 88.0367 193.494 88.45C193.494 89.2167 193.274 89.8333 192.834 90.3C192.4 90.7667 191.78 91 190.974 91C190.214 91 189.607 90.81 189.154 90.43C188.7 90.05 188.444 89.5533 188.384 88.94H189.744C189.804 89.2067 189.937 89.42 190.144 89.58C190.357 89.74 190.627 89.82 190.954 89.82C191.347 89.82 191.644 89.6967 191.844 89.45C192.044 89.2033 192.144 88.8767 192.144 88.47C192.144 88.0567 192.04 87.7433 191.834 87.53C191.634 87.31 191.337 87.2 190.944 87.2C190.664 87.2 190.43 87.27 190.244 87.41C190.057 87.55 189.924 87.7367 189.844 87.97H188.504V83.69H193.024V84.92Z" fill="#D0CAB9"/>
<path d="M204.35 85V83.71H206.76V91H205.32V85H204.35ZM211.923 85.53C211.857 85.25 211.74 85.04 211.573 84.9C211.413 84.76 211.18 84.69 210.873 84.69C210.413 84.69 210.073 84.8767 209.853 85.25C209.64 85.6167 209.53 86.2167 209.523 87.05C209.683 86.7833 209.917 86.5767 210.223 86.43C210.53 86.2767 210.863 86.2 211.223 86.2C211.657 86.2 212.04 86.2933 212.373 86.48C212.707 86.6667 212.967 86.94 213.153 87.3C213.34 87.6533 213.433 88.08 213.433 88.58C213.433 89.0533 213.337 89.4767 213.143 89.85C212.957 90.2167 212.68 90.5033 212.313 90.71C211.947 90.9167 211.51 91.02 211.003 91.02C210.31 91.02 209.763 90.8667 209.363 90.56C208.97 90.2533 208.693 89.8267 208.533 89.28C208.38 88.7267 208.303 88.0467 208.303 87.24C208.303 86.02 208.513 85.1 208.933 84.48C209.353 83.8533 210.017 83.54 210.923 83.54C211.623 83.54 212.167 83.73 212.553 84.11C212.94 84.49 213.163 84.9633 213.223 85.53H211.923ZM210.903 87.35C210.55 87.35 210.253 87.4533 210.013 87.66C209.773 87.8667 209.653 88.1667 209.653 88.56C209.653 88.9533 209.763 89.2633 209.983 89.49C210.21 89.7167 210.527 89.83 210.933 89.83C211.293 89.83 211.577 89.72 211.783 89.5C211.997 89.28 212.103 88.9833 212.103 88.61C212.103 88.2233 212 87.9167 211.793 87.69C211.593 87.4633 211.297 87.35 210.903 87.35Z" fill="#D0CAB9"/>
<path d="M224.316 85V83.71H226.726V91H225.286V85H224.316ZM228.109 87.26C228.109 86.1067 228.316 85.2033 228.729 84.55C229.149 83.8967 229.842 83.57 230.809 83.57C231.776 83.57 232.466 83.8967 232.879 84.55C233.299 85.2033 233.509 86.1067 233.509 87.26C233.509 88.42 233.299 89.33 232.879 89.99C232.466 90.65 231.776 90.98 230.809 90.98C229.842 90.98 229.149 90.65 228.729 89.99C228.316 89.33 228.109 88.42 228.109 87.26ZM232.129 87.26C232.129 86.7667 232.096 86.3533 232.029 86.02C231.969 85.68 231.842 85.4033 231.649 85.19C231.462 84.9767 231.182 84.87 230.809 84.87C230.436 84.87 230.152 84.9767 229.959 85.19C229.772 85.4033 229.646 85.68 229.579 86.02C229.519 86.3533 229.489 86.7667 229.489 87.26C229.489 87.7667 229.519 88.1933 229.579 88.54C229.639 88.88 229.766 89.1567 229.959 89.37C230.152 89.5767 230.436 89.68 230.809 89.68C231.182 89.68 231.466 89.5767 231.659 89.37C231.852 89.1567 231.979 88.88 232.039 88.54C232.099 88.1933 232.129 87.7667 232.129 87.26Z" fill="#D0CAB9"/>
<path d="M245.237 85V83.71H247.647V91H246.207V85H245.237ZM248.86 85V83.71H251.27V91H249.83V85H248.86Z" fill="#D0CAB9"/>
<path d="M264.177 85V83.71H266.587V91H265.147V85H264.177ZM268.41 89.42C269.05 88.8867 269.56 88.4433 269.94 88.09C270.32 87.73 270.637 87.3567 270.89 86.97C271.144 86.5833 271.27 86.2033 271.27 85.83C271.27 85.49 271.19 85.2233 271.03 85.03C270.87 84.8367 270.624 84.74 270.29 84.74C269.957 84.74 269.7 84.8533 269.52 85.08C269.34 85.3 269.247 85.6033 269.24 85.99H267.88C267.907 85.19 268.144 84.5833 268.59 84.17C269.044 83.7567 269.617 83.55 270.31 83.55C271.07 83.55 271.654 83.7533 272.06 84.16C272.467 84.56 272.67 85.09 272.67 85.75C272.67 86.27 272.53 86.7667 272.25 87.24C271.97 87.7133 271.65 88.1267 271.29 88.48C270.93 88.8267 270.46 89.2467 269.88 89.74H272.83V90.9H267.89V89.86L268.41 89.42Z" fill="#D0CAB9"/>
<path d="M284.055 85V83.71H286.465V91H285.025V85H284.055ZM287.868 85.63C287.902 84.9633 288.135 84.45 288.568 84.09C289.008 83.7233 289.585 83.54 290.298 83.54C290.785 83.54 291.202 83.6267 291.548 83.8C291.895 83.9667 292.155 84.1967 292.328 84.49C292.508 84.7767 292.598 85.1033 292.598 85.47C292.598 85.89 292.488 86.2467 292.268 86.54C292.055 86.8267 291.798 87.02 291.498 87.12V87.16C291.885 87.28 292.185 87.4933 292.398 87.8C292.618 88.1067 292.728 88.5 292.728 88.98C292.728 89.38 292.635 89.7367 292.448 90.05C292.268 90.3633 291.998 90.61 291.638 90.79C291.285 90.9633 290.858 91.05 290.358 91.05C289.605 91.05 288.992 90.86 288.518 90.48C288.045 90.1 287.795 89.54 287.768 88.8H289.128C289.142 89.1267 289.252 89.39 289.458 89.59C289.672 89.7833 289.962 89.88 290.328 89.88C290.668 89.88 290.928 89.7867 291.108 89.6C291.295 89.4067 291.388 89.16 291.388 88.86C291.388 88.46 291.262 88.1733 291.008 88C290.755 87.8267 290.362 87.74 289.828 87.74H289.538V86.59H289.828C290.775 86.59 291.248 86.2733 291.248 85.64C291.248 85.3533 291.162 85.13 290.988 84.97C290.822 84.81 290.578 84.73 290.258 84.73C289.945 84.73 289.702 84.8167 289.528 84.99C289.362 85.1567 289.265 85.37 289.238 85.63H287.868Z" fill="#D0CAB9"/>
<path d="M304.787 89.42C305.427 88.8867 305.937 88.4433 306.317 88.09C306.697 87.73 307.014 87.3567 307.267 86.97C307.521 86.5833 307.647 86.2033 307.647 85.83C307.647 85.49 307.567 85.2233 307.407 85.03C307.247 84.8367 307.001 84.74 306.667 84.74C306.334 84.74 306.077 84.8533 305.897 85.08C305.717 85.3 305.624 85.6033 305.617 85.99H304.257C304.284 85.19 304.521 84.5833 304.967 84.17C305.421 83.7567 305.994 83.55 306.687 83.55C307.447 83.55 308.031 83.7533 308.437 84.16C308.844 84.56 309.047 85.09 309.047 85.75C309.047 86.27 308.907 86.7667 308.627 87.24C308.347 87.7133 308.027 88.1267 307.667 88.48C307.307 88.8267 306.837 89.2467 306.257 89.74H309.207V90.9H304.267V89.86L304.787 89.42ZM309.92 85V83.71H312.33V91H310.89V85H309.92Z" fill="#D0CAB9"/>
<path d="M183.728 116.42C184.368 115.887 184.878 115.443 185.258 115.09C185.638 114.73 185.954 114.357 186.208 113.97C186.461 113.583 186.588 113.203 186.588 112.83C186.588 112.49 186.508 112.223 186.348 112.03C186.188 111.837 185.941 111.74 185.608 111.74C185.274 111.74 185.018 111.853 184.838 112.08C184.658 112.3 184.564 112.603 184.558 112.99H183.198C183.224 112.19 183.461 111.583 183.908 111.17C184.361 110.757 184.934 110.55 185.628 110.55C186.388 110.55 186.971 110.753 187.378 111.16C187.784 111.56 187.988 112.09 187.988 112.75C187.988 113.27 187.848 113.767 187.568 114.24C187.288 114.713 186.968 115.127 186.608 115.48C186.248 115.827 185.778 116.247 185.198 116.74H188.148V117.9H183.208V116.86L183.728 116.42ZM189.47 116.42C190.11 115.887 190.62 115.443 191 115.09C191.38 114.73 191.697 114.357 191.95 113.97C192.203 113.583 192.33 113.203 192.33 112.83C192.33 112.49 192.25 112.223 192.09 112.03C191.93 111.837 191.683 111.74 191.35 111.74C191.017 111.74 190.76 111.853 190.58 112.08C190.4 112.3 190.307 112.603 190.3 112.99H188.94C188.967 112.19 189.203 111.583 189.65 111.17C190.103 110.757 190.677 110.55 191.37 110.55C192.13 110.55 192.713 110.753 193.12 111.16C193.527 111.56 193.73 112.09 193.73 112.75C193.73 113.27 193.59 113.767 193.31 114.24C193.03 114.713 192.71 115.127 192.35 115.48C191.99 115.827 191.52 116.247 190.94 116.74H193.89V117.9H188.95V116.86L189.47 116.42Z" fill="#D0CAB9"/>
<path d="M203.606 116.42C204.246 115.887 204.756 115.443 205.136 115.09C205.516 114.73 205.832 114.357 206.086 113.97C206.339 113.583 206.466 113.203 206.466 112.83C206.466 112.49 206.386 112.223 206.226 112.03C206.066 111.837 205.819 111.74 205.486 111.74C205.152 111.74 204.896 111.853 204.716 112.08C204.536 112.3 204.442 112.603 204.436 112.99H203.076C203.102 112.19 203.339 111.583 203.786 111.17C204.239 110.757 204.812 110.55 205.506 110.55C206.266 110.55 206.849 110.753 207.256 111.16C207.662 111.56 207.866 112.09 207.866 112.75C207.866 113.27 207.726 113.767 207.446 114.24C207.166 114.713 206.846 115.127 206.486 115.48C206.126 115.827 205.656 116.247 205.076 116.74H208.026V117.9H203.086V116.86L203.606 116.42ZM208.928 112.63C208.961 111.963 209.195 111.45 209.628 111.09C210.068 110.723 210.645 110.54 211.358 110.54C211.845 110.54 212.261 110.627 212.608 110.8C212.955 110.967 213.215 111.197 213.388 111.49C213.568 111.777 213.658 112.103 213.658 112.47C213.658 112.89 213.548 113.247 213.328 113.54C213.115 113.827 212.858 114.02 212.558 114.12V114.16C212.945 114.28 213.245 114.493 213.458 114.8C213.678 115.107 213.788 115.5 213.788 115.98C213.788 116.38 213.695 116.737 213.508 117.05C213.328 117.363 213.058 117.61 212.698 117.79C212.345 117.963 211.918 118.05 211.418 118.05C210.665 118.05 210.051 117.86 209.578 117.48C209.105 117.1 208.855 116.54 208.828 115.8H210.188C210.201 116.127 210.311 116.39 210.518 116.59C210.731 116.783 211.021 116.88 211.388 116.88C211.728 116.88 211.988 116.787 212.168 116.6C212.355 116.407 212.448 116.16 212.448 115.86C212.448 115.46 212.321 115.173 212.068 115C211.815 114.827 211.421 114.74 210.888 114.74H210.598V113.59H210.888C211.835 113.59 212.308 113.273 212.308 112.64C212.308 112.353 212.221 112.13 212.048 111.97C211.881 111.81 211.638 111.73 211.318 111.73C211.005 111.73 210.761 111.817 210.588 111.99C210.421 112.157 210.325 112.37 210.298 112.63H208.928Z" fill="#D0CAB9"/>
<path d="M223.793 116.42C224.433 115.887 224.943 115.443 225.323 115.09C225.703 114.73 226.02 114.357 226.273 113.97C226.527 113.583 226.653 113.203 226.653 112.83C226.653 112.49 226.573 112.223 226.413 112.03C226.253 111.837 226.007 111.74 225.673 111.74C225.34 111.74 225.083 111.853 224.903 112.08C224.723 112.3 224.63 112.603 224.623 112.99H223.263C223.29 112.19 223.527 111.583 223.973 111.17C224.427 110.757 225 110.55 225.693 110.55C226.453 110.55 227.037 110.753 227.443 111.16C227.85 111.56 228.053 112.09 228.053 112.75C228.053 113.27 227.913 113.767 227.633 114.24C227.353 114.713 227.033 115.127 226.673 115.48C226.313 115.827 225.843 116.247 225.263 116.74H228.213V117.9H223.273V116.86L223.793 116.42ZM229.035 116.58V115.48L232.305 110.8H233.935V115.36H234.815V116.58H233.935V118H232.535V116.58H229.035ZM232.625 112.3L230.575 115.36H232.625V112.3Z" fill="#D0CAB9"/>
<path d="M243.881 116.42C244.521 115.887 245.031 115.443 245.411 115.09C245.791 114.73 246.108 114.357 246.361 113.97C246.614 113.583 246.741 113.203 246.741 112.83C246.741 112.49 246.661 112.223 246.501 112.03C246.341 111.837 246.094 111.74 245.761 111.74C245.428 111.74 245.171 111.853 244.991 112.08C244.811 112.3 244.718 112.603 244.711 112.99H243.351C243.378 112.19 243.614 111.583 244.061 111.17C244.514 110.757 245.088 110.55 245.781 110.55C246.541 110.55 247.124 110.753 247.531 111.16C247.938 111.56 248.141 112.09 248.141 112.75C248.141 113.27 248.001 113.767 247.721 114.24C247.441 114.713 247.121 115.127 246.761 115.48C246.401 115.827 245.931 116.247 245.351 116.74H248.301V117.9H243.361V116.86L243.881 116.42ZM254.083 111.92H250.843V113.63C250.983 113.457 251.183 113.317 251.443 113.21C251.703 113.097 251.98 113.04 252.273 113.04C252.807 113.04 253.243 113.157 253.583 113.39C253.923 113.623 254.17 113.923 254.323 114.29C254.477 114.65 254.553 115.037 254.553 115.45C254.553 116.217 254.333 116.833 253.893 117.3C253.46 117.767 252.84 118 252.033 118C251.273 118 250.667 117.81 250.213 117.43C249.76 117.05 249.503 116.553 249.443 115.94H250.803C250.863 116.207 250.997 116.42 251.203 116.58C251.417 116.74 251.687 116.82 252.013 116.82C252.407 116.82 252.703 116.697 252.903 116.45C253.103 116.203 253.203 115.877 253.203 115.47C253.203 115.057 253.1 114.743 252.893 114.53C252.693 114.31 252.397 114.2 252.003 114.2C251.723 114.2 251.49 114.27 251.303 114.41C251.117 114.55 250.983 114.737 250.903 114.97H249.563V110.69H254.083V111.92Z" fill="#D0CAB9"/>
<path d="M263.901 116.42C264.541 115.887 265.051 115.443 265.431 115.09C265.811 114.73 266.127 114.357 266.381 113.97C266.634 113.583 266.761 113.203 266.761 112.83C266.761 112.49 266.681 112.223 266.521 112.03C266.361 111.837 266.114 111.74 265.781 111.74C265.447 111.74 265.191 111.853 265.011 112.08C264.831 112.3 264.737 112.603 264.731 112.99H263.371C263.397 112.19 263.634 111.583 264.081 111.17C264.534 110.757 265.107 110.55 265.801 110.55C266.561 110.55 267.144 110.753 267.551 111.16C267.957 111.56 268.161 112.09 268.161 112.75C268.161 113.27 268.021 113.767 267.741 114.24C267.461 114.713 267.141 115.127 266.781 115.48C266.421 115.827 265.951 116.247 265.371 116.74H268.321V117.9H263.381V116.86L263.901 116.42ZM272.983 112.53C272.916 112.25 272.8 112.04 272.633 111.9C272.473 111.76 272.24 111.69 271.933 111.69C271.473 111.69 271.133 111.877 270.913 112.25C270.7 112.617 270.59 113.217 270.583 114.05C270.743 113.783 270.976 113.577 271.283 113.43C271.59 113.277 271.923 113.2 272.283 113.2C272.716 113.2 273.1 113.293 273.433 113.48C273.766 113.667 274.026 113.94 274.213 114.3C274.4 114.653 274.493 115.08 274.493 115.58C274.493 116.053 274.396 116.477 274.203 116.85C274.016 117.217 273.74 117.503 273.373 117.71C273.006 117.917 272.57 118.02 272.063 118.02C271.37 118.02 270.823 117.867 270.423 117.56C270.03 117.253 269.753 116.827 269.593 116.28C269.44 115.727 269.363 115.047 269.363 114.24C269.363 113.02 269.573 112.1 269.993 111.48C270.413 110.853 271.076 110.54 271.983 110.54C272.683 110.54 273.226 110.73 273.613 111.11C274 111.49 274.223 111.963 274.283 112.53H272.983ZM271.963 114.35C271.61 114.35 271.313 114.453 271.073 114.66C270.833 114.867 270.713 115.167 270.713 115.56C270.713 115.953 270.823 116.263 271.043 116.49C271.27 116.717 271.586 116.83 271.993 116.83C272.353 116.83 272.636 116.72 272.843 116.5C273.056 116.28 273.163 115.983 273.163 115.61C273.163 115.223 273.06 114.917 272.853 114.69C272.653 114.463 272.356 114.35 271.963 114.35Z" fill="#D0CAB9"/>
<path d="M283.86 116.42C284.5 115.887 285.01 115.443 285.39 115.09C285.77 114.73 286.086 114.357 286.34 113.97C286.593 113.583 286.72 113.203 286.72 112.83C286.72 112.49 286.64 112.223 286.48 112.03C286.32 111.837 286.073 111.74 285.74 111.74C285.406 111.74 285.15 111.853 284.97 112.08C284.79 112.3 284.696 112.603 284.69 112.99H283.33C283.356 112.19 283.593 111.583 284.04 111.17C284.493 110.757 285.066 110.55 285.76 110.55C286.52 110.55 287.103 110.753 287.51 111.16C287.916 111.56 288.12 112.09 288.12 112.75C288.12 113.27 287.98 113.767 287.7 114.24C287.42 114.713 287.1 115.127 286.74 115.48C286.38 115.827 285.91 116.247 285.33 116.74H288.28V117.9H283.34V116.86L283.86 116.42ZM293.802 111.77L291.142 118H289.722L292.402 111.93H288.982V110.73H293.802V111.77Z" fill="#D0CAB9"/>
<path d="M303.886 116.42C304.526 115.887 305.036 115.443 305.416 115.09C305.796 114.73 306.113 114.357 306.366 113.97C306.619 113.583 306.746 113.203 306.746 112.83C306.746 112.49 306.666 112.223 306.506 112.03C306.346 111.837 306.099 111.74 305.766 111.74C305.433 111.74 305.176 111.853 304.996 112.08C304.816 112.3 304.723 112.603 304.716 112.99H303.356C303.383 112.19 303.619 111.583 304.066 111.17C304.519 110.757 305.093 110.55 305.786 110.55C306.546 110.55 307.129 110.753 307.536 111.16C307.943 111.56 308.146 112.09 308.146 112.75C308.146 113.27 308.006 113.767 307.726 114.24C307.446 114.713 307.126 115.127 306.766 115.48C306.406 115.827 305.936 116.247 305.356 116.74H308.306V117.9H303.366V116.86L303.886 116.42ZM310.408 114.14C309.742 113.793 309.408 113.257 309.408 112.53C309.408 112.17 309.498 111.843 309.678 111.55C309.865 111.25 310.142 111.013 310.508 110.84C310.882 110.66 311.335 110.57 311.868 110.57C312.402 110.57 312.852 110.66 313.218 110.84C313.592 111.013 313.868 111.25 314.048 111.55C314.235 111.843 314.328 112.17 314.328 112.53C314.328 112.897 314.238 113.22 314.058 113.5C313.878 113.773 313.638 113.987 313.338 114.14C313.705 114.3 313.992 114.533 314.198 114.84C314.405 115.147 314.508 115.51 314.508 115.93C314.508 116.383 314.392 116.78 314.158 117.12C313.932 117.453 313.618 117.71 313.218 117.89C312.818 118.07 312.368 118.16 311.868 118.16C311.368 118.16 310.918 118.07 310.518 117.89C310.125 117.71 309.812 117.453 309.578 117.12C309.352 116.78 309.238 116.383 309.238 115.93C309.238 115.51 309.342 115.147 309.548 114.84C309.755 114.527 310.042 114.293 310.408 114.14ZM312.968 112.73C312.968 112.403 312.868 112.15 312.668 111.97C312.475 111.79 312.208 111.7 311.868 111.7C311.535 111.7 311.268 111.79 311.068 111.97C310.875 112.15 310.778 112.407 310.778 112.74C310.778 113.04 310.878 113.28 311.078 113.46C311.285 113.64 311.548 113.73 311.868 113.73C312.188 113.73 312.452 113.64 312.658 113.46C312.865 113.273 312.968 113.03 312.968 112.73ZM311.868 114.75C311.488 114.75 311.178 114.847 310.938 115.04C310.705 115.233 310.588 115.51 310.588 115.87C310.588 116.203 310.702 116.477 310.928 116.69C311.162 116.897 311.475 117 311.868 117C312.262 117 312.572 116.893 312.798 116.68C313.025 116.467 313.138 116.197 313.138 115.87C313.138 115.517 313.022 115.243 312.788 115.05C312.555 114.85 312.248 114.75 311.868 114.75Z" fill="#D0CAB9"/>
<path fill-rule="evenodd" clip-rule="evenodd" d="M304.231 47.3343C303.485 47.542 303.049 48.315 303.256 49.0608C306.567 60.9502 304.727 69.9327 301.432 76.061C299.778 79.1384 297.749 81.5109 295.797 83.1803C293.821 84.8702 292.002 85.7744 290.796 86.0318C290.039 86.1933 289.556 86.938 289.717 87.6951C289.879 88.4523 290.623 88.9351 291.381 88.7736C293.197 88.3861 295.43 87.1831 297.619 85.311C299.832 83.4186 302.081 80.7745 303.902 77.3885C307.556 70.59 309.452 60.8584 305.957 48.3087C305.749 47.5629 304.977 47.1266 304.231 47.3343Z" fill="#F64A70"/>
<path fill-rule="evenodd" clip-rule="evenodd" d="M179.095 115.228C179.853 115.385 180.59 114.897 180.741 114.137C183.184 101.849 187.014 95.4782 190.723 92.3505C194.372 89.2733 198.063 89.2048 200.681 89.9176C201.428 90.121 202.193 89.679 202.391 88.9304C202.588 88.1818 202.143 87.4101 201.396 87.2067C198.042 86.2937 193.371 86.4366 188.915 90.1942C184.518 93.9013 180.499 100.988 177.997 113.569C177.846 114.328 178.338 115.071 179.095 115.228Z" fill="#F64A70"/>
<path fill-rule="evenodd" clip-rule="evenodd" d="M249.42 96.8828C248.646 96.8828 248.018 97.5104 248.018 98.2846V138.044C248.018 138.819 248.646 139.446 249.42 139.446H254.192C254.966 139.446 255.594 138.819 255.594 138.044C255.594 137.27 254.966 136.643 254.192 136.643H250.822V98.2846C250.822 97.5104 250.194 96.8828 249.42 96.8828Z" fill="#F64A70"/>
<path fill-rule="evenodd" clip-rule="evenodd" d="M239.586 96.8995C238.782 96.7219 237.987 97.2296 237.809 98.0334C236.567 103.657 233.809 110.982 229.708 115.103C227.693 117.129 225.469 118.269 223.014 118.224C220.538 118.177 217.503 116.92 213.892 113.449C213.571 113.14 213.129 112.991 212.687 113.043C212.245 113.094 211.849 113.34 211.607 113.714L207.651 119.84C207.205 120.531 207.403 121.454 208.095 121.9C208.786 122.347 209.709 122.148 210.156 121.457L213.158 116.808C216.592 119.749 219.862 121.146 222.958 121.204C226.472 121.27 229.434 119.605 231.822 117.206C236.526 112.479 239.438 104.478 240.72 98.6765C240.897 97.8727 240.39 97.0771 239.586 96.8995Z" fill="#F64A70"/>
<path d="M238.458 88.2955C238.543 88.7295 238.735 89.1417 238.949 89.5105C239.482 90.4 240.272 91.0509 241.212 91.4414C242.514 91.9838 244.137 92.0272 245.482 91.6367C246.55 91.3329 247.447 90.7038 248.109 89.7925C248.429 89.3586 248.707 88.8379 248.813 88.2955C248.963 87.623 247.938 87.3192 247.788 88.0135C247.767 88.122 247.724 88.2088 247.703 88.3172C247.682 88.3606 247.66 88.404 247.639 88.4691C247.639 88.4691 247.703 88.3606 247.639 88.4474C247.618 88.4691 247.618 88.5125 247.596 88.5342C247.532 88.6644 247.468 88.8162 247.383 88.9247C247.34 89.0115 247.297 89.0766 247.233 89.1417C247.212 89.1851 247.191 89.2068 247.169 89.2501C247.127 89.3152 247.212 89.1851 247.127 89.3152C246.998 89.4671 246.849 89.619 246.7 89.7708C246.657 89.8142 246.635 89.8359 246.593 89.8576C246.571 89.8793 246.443 89.9661 246.529 89.9227C246.422 89.9878 246.337 90.0746 246.23 90.1397C246.038 90.2698 245.781 90.4 245.611 90.4651C244.458 90.9207 243.091 90.9424 241.917 90.5736C241.49 90.4434 241.02 90.2048 240.678 89.9444C240.571 89.8576 240.379 89.6841 240.251 89.5322C240.187 89.4671 240.123 89.3803 240.059 89.2935C240.123 89.3586 240.08 89.3152 240.038 89.2718C240.016 89.2285 239.974 89.1851 239.952 89.1417C239.845 88.9898 239.76 88.8379 239.696 88.6861C239.653 88.621 239.632 88.5559 239.611 88.4691C239.611 88.4691 239.653 88.5776 239.611 88.4691C239.611 88.4474 239.589 88.4257 239.589 88.3823C239.546 88.2521 239.504 88.1437 239.482 88.0135C239.418 87.7315 239.077 87.5579 238.821 87.6447C238.522 87.7098 238.393 88.0135 238.458 88.2955Z" fill="#131313"/>
<path d="M225.081 95.3792C227.716 95.3792 229.853 93.2083 229.853 90.5304C229.853 87.8525 227.716 85.6816 225.081 85.6816C222.445 85.6816 220.309 87.8525 220.309 90.5304C220.309 93.2083 222.445 95.3792 225.081 95.3792Z" fill="#F64A70"/>
<path d="M263.26 95.3792C265.896 95.3792 268.032 93.2083 268.032 90.5304C268.032 87.8525 265.896 85.6816 263.26 85.6816C260.625 85.6816 258.488 87.8525 258.488 90.5304C258.488 93.2083 260.625 95.3792 263.26 95.3792Z" fill="#F64A70"/>
<path d="M281.165 73.2797C281.462 72.1537 281.632 70.9844 281.632 69.7501C281.632 62.8426 276.513 57.2559 270.182 57.2559C268.356 57.2559 266.656 57.7106 265.127 58.5335C263.98 52.9468 259.413 48.7676 253.953 48.7676C250.023 48.7676 246.54 50.933 244.479 54.2243C242.397 51.2145 239.084 49.2656 235.345 49.2656C229.886 49.2656 225.297 53.4448 224.172 59.0315C222.642 58.2086 220.921 57.7539 219.116 57.7539C212.786 57.7539 207.666 63.3406 207.666 70.2482C207.666 71.2876 207.794 72.3053 208.006 73.2797C202.08 73.7561 197.406 79.1479 197.406 85.7307C197.406 92.6382 202.526 98.2249 208.856 98.2249H280.442C286.773 98.2249 291.892 92.6382 291.892 85.7307C291.871 79.1046 287.134 73.6911 281.165 73.2797Z" fill="#FF8BA5"/>
<path d="M256.099 88.5267C260.053 88.5267 263.257 85.2704 263.257 81.2536C263.257 77.2368 260.053 73.9805 256.099 73.9805C252.146 73.9805 248.941 77.2368 248.941 81.2536C248.941 85.2704 252.146 88.5267 256.099 88.5267Z" fill="white"/>
<path d="M230.978 89.2885C234.932 89.2885 238.136 86.0322 238.136 82.0153C238.136 77.9985 234.932 74.7422 230.978 74.7422C227.025 74.7422 223.82 77.9985 223.82 82.0153C223.82 86.0322 227.025 89.2885 230.978 89.2885Z" fill="white"/>
<path d="M256.306 86.3743C259.252 86.3743 261.64 83.9864 261.64 81.0407C261.64 78.095 259.252 75.707 256.306 75.707C253.361 75.707 250.973 78.095 250.973 81.0407C250.973 83.9864 253.361 86.3743 256.306 86.3743Z" fill="#131313"/>
<path d="M231.185 87.136C234.131 87.136 236.519 84.7481 236.519 81.8024C236.519 78.8567 234.131 76.4688 231.185 76.4688C228.24 76.4688 225.852 78.8567 225.852 81.8024C225.852 84.7481 228.24 87.136 231.185 87.136Z" fill="#131313"/>
<path d="M226.742 71.1675C226.658 70.3683 227.248 69.6547 228.035 69.5691L232.642 69.141C233.428 69.0553 234.13 69.6547 234.215 70.4539C234.299 71.2531 233.709 71.9667 232.922 72.0523L228.316 72.4805C227.529 72.5376 226.799 71.9667 226.742 71.1675Z" fill="#F64A70"/>
<path d="M261.359 71.1675C261.443 70.3683 260.854 69.6547 260.067 69.5691L255.46 69.141C254.673 69.0553 253.971 69.6547 253.887 70.4539C253.803 71.2531 254.393 71.9667 255.179 72.0523L259.786 72.4805C260.573 72.5376 261.303 71.9667 261.359 71.1675Z" fill="#F64A70"/>
<path fill-rule="evenodd" clip-rule="evenodd" d="M225.269 44.3504C215.332 44.3504 207.276 52.4063 207.276 62.3437H204.473C204.473 50.8579 213.784 41.5469 225.269 41.5469H264.06C275.545 41.5469 284.856 50.8579 284.856 62.3437H282.053C282.053 52.4063 273.997 44.3504 264.06 44.3504H225.269Z" fill="#8D33FF"/>
<path d="M200.58 67.1162C200.936 62.0954 205.525 61.2058 207.997 61.3965C208.986 65.5909 210.371 73.9796 207.997 73.9796H207.997C205.03 73.9796 200.094 73.9796 200.58 67.1162Z" fill="#8D33FF"/>
<path d="M207.367 61.8609C207.367 61.0575 208.018 60.4062 208.822 60.4062V60.4062C209.625 60.4062 210.276 61.0575 210.276 61.8609V73.4979C210.276 74.3013 209.625 74.9525 208.822 74.9525V74.9525C208.018 74.9525 207.367 74.3013 207.367 73.4979V61.8609Z" fill="#131313"/>
<path d="M288.787 67.1162C288.432 62.0954 283.842 61.2058 281.37 61.3965C280.381 65.5909 278.996 73.9796 281.37 73.9796H281.37C284.337 73.9796 289.273 73.9796 288.787 67.1162Z" fill="#8D33FF"/>
<path d="M282.004 61.8609C282.004 61.0575 281.353 60.4062 280.549 60.4062V60.4062C279.746 60.4062 279.095 61.0575 279.095 61.8609V73.4979C279.095 74.3013 279.746 74.9525 280.549 74.9525V74.9525C281.353 74.9525 282.004 74.3013 282.004 73.4979V61.8609Z" fill="#131313"/>
<path d="M281.165 73.2797C281.462 72.1537 281.632 70.9844 281.632 69.7501C281.632 62.8426 276.513 57.2559 270.182 57.2559C268.356 57.2559 266.656 57.7106 265.127 58.5335C263.98 52.9468 259.413 48.7676 253.953 48.7676C250.023 48.7676 246.54 50.933 244.479 54.2243C242.397 51.2145 239.084 49.2656 235.345 49.2656C229.886 49.2656 225.297 53.4448 224.172 59.0315C222.642 58.2086 220.921 57.7539 219.116 57.7539C212.786 57.7539 207.666 63.3406 207.666 70.2482C207.666 71.2876 207.794 72.3053 208.006 73.2797C202.08 73.7561 197.406 79.1479 197.406 85.7307C197.406 92.6382 202.526 98.2249 208.856 98.2249H280.442C286.773 98.2249 291.892 92.6382 291.892 85.7307C291.871 79.1046 287.134 73.6911 281.165 73.2797Z" fill="#FF8BA5"/>
<path d="M240.668 80.8808C240.668 80.3275 241.117 79.8789 241.67 79.8789H248.54C249.093 79.8789 249.542 80.3275 249.542 80.8808C249.542 82.7779 248.004 84.3159 246.107 84.3159H244.103C242.206 84.3159 240.668 82.7779 240.668 80.8808Z" fill="#111111"/>
<path fill-rule="evenodd" clip-rule="evenodd" d="M248.892 82.8934C248.267 83.7554 247.253 84.3162 246.107 84.3162H244.103C242.957 84.3162 241.942 83.7549 241.318 82.8922C242.098 82.415 243.502 82.0967 245.104 82.0967C246.707 82.0967 248.112 82.4156 248.892 82.8934Z" fill="#F64A70"/>
<circle cx="218.769" cy="87.3645" r="5.82353" fill="#F64A70"/>
<rect x="222.369" y="66.7021" width="8.31933" height="2.77311" rx="1.38656" transform="rotate(-18.9529 222.369 66.7021)" fill="#F64A70"/>
<rect width="8.31933" height="2.77311" rx="1.38656" transform="matrix(-0.945786 -0.324791 -0.324791 0.945786 266.637 66.7021)" fill="#F64A70"/>
<circle cx="230.405" cy="80.2929" r="9.28992" fill="white"/>
<circle cx="230.405" cy="80.2923" r="7.43194" fill="#111111"/>
<path d="M234.24 80.0508C234.714 79.5529 235.549 79.9529 235.458 80.6346L235.388 81.1529C235.347 81.4578 235.508 81.7542 235.785 81.8872L236.257 82.1132C236.877 82.4105 236.754 83.3277 236.078 83.4517L235.563 83.5459C235.261 83.6014 235.028 83.8453 234.988 84.1502L234.918 84.6685C234.827 85.3502 233.917 85.517 233.59 84.912L233.341 84.4519C233.195 84.1813 232.891 84.0356 232.589 84.0911L232.074 84.1854C231.398 84.3093 230.958 83.4953 231.432 82.9974L231.793 82.6187C232.005 82.3961 232.05 82.0621 231.904 81.7915L231.655 81.3314C231.328 80.7264 231.967 80.0565 232.587 80.3538L233.058 80.5799C233.336 80.7128 233.667 80.6521 233.879 80.4294L234.24 80.0508Z" fill="white"/>
<rect x="232.346" y="74.8857" width="1.66387" height="1.66387" rx="0.831934" fill="white"/>
<rect x="234.564" y="77.1025" width="1.66387" height="1.66387" rx="0.831934" fill="white"/>
<circle cx="227.078" cy="77.9351" r="4.15967" fill="white"/>
<circle cx="227.547" cy="85.6178" r="1.85798" fill="white"/>
<path fill-rule="evenodd" clip-rule="evenodd" d="M236.831 87.0087C235.163 88.6031 232.902 89.5823 230.412 89.5823C227.739 89.5823 225.33 88.4532 223.635 86.6459C225.41 86.2185 227.432 85.9766 229.578 85.9766C232.272 85.9766 234.771 86.3579 236.831 87.0087Z" fill="#F46D8B"/>
<circle cx="5.82353" cy="5.82353" r="5.82353" transform="matrix(-1 0 0 1 277.469 81.541)" fill="#F64A70"/>
<circle cx="259.95" cy="80.2929" r="9.28992" fill="white"/>
<circle cx="259.95" cy="80.2929" r="9.28992" fill="white"/>
<circle cx="259.95" cy="80.2923" r="7.43194" fill="#111111"/>
<path d="M263.785 80.0508C264.259 79.5529 265.094 79.9529 265.002 80.6346L264.933 81.1529C264.892 81.4578 265.053 81.7542 265.33 81.8872L265.801 82.1132C266.422 82.4105 266.299 83.3277 265.623 83.4517L265.108 83.5459C264.806 83.6014 264.573 83.8453 264.532 84.1502L264.463 84.6685C264.372 85.3502 263.462 85.517 263.135 84.912L262.886 84.4519C262.74 84.1813 262.436 84.0356 262.134 84.0911L261.619 84.1854C260.943 84.3093 260.503 83.4953 260.977 82.9974L261.338 82.6187C261.55 82.3961 261.595 82.0621 261.449 81.7915L261.2 81.3314C260.873 80.7264 261.511 80.0565 262.132 80.3538L262.603 80.5799C262.88 80.7128 263.212 80.6521 263.424 80.4294L263.785 80.0508Z" fill="white"/>
<rect x="261.891" y="74.8857" width="1.66387" height="1.66387" rx="0.831934" fill="white"/>
<rect x="264.109" y="77.1025" width="1.66387" height="1.66387" rx="0.831934" fill="white"/>
<circle cx="256.484" cy="77.9351" r="4.15967" fill="white"/>
<circle cx="257.092" cy="85.6178" r="1.85798" fill="white"/>
<path fill-rule="evenodd" clip-rule="evenodd" d="M266.372 87.0079C264.704 88.6027 262.443 89.5823 259.953 89.5823C257.28 89.5823 254.871 88.4535 253.176 86.6466C254.951 86.2188 256.975 85.9766 259.122 85.9766C261.815 85.9766 264.313 86.3576 266.372 87.0079Z" fill="#F46D8B"/>
<path fill-rule="evenodd" clip-rule="evenodd" d="M225.269 44.3504C215.332 44.3504 207.276 52.4063 207.276 62.3437H204.473C204.473 50.8579 213.784 41.5469 225.269 41.5469H264.06C275.545 41.5469 284.856 50.8579 284.856 62.3437H282.053C282.053 52.4063 273.997 44.3504 264.06 44.3504H225.269Z" fill="#8D33FF"/>
<path d="M200.58 67.1162C200.936 62.0954 205.525 61.2058 207.997 61.3965C208.986 65.5909 210.371 73.9796 207.997 73.9796H207.997C205.03 73.9796 200.094 73.9796 200.58 67.1162Z" fill="#8D33FF"/>
<path d="M207.367 61.8609C207.367 61.0575 208.018 60.4062 208.822 60.4062V60.4062C209.625 60.4062 210.276 61.0575 210.276 61.8609V73.4979C210.276 74.3013 209.625 74.9525 208.822 74.9525V74.9525C208.018 74.9525 207.367 74.3013 207.367 73.4979V61.8609Z" fill="#5800C8"/>
<path d="M288.787 67.1162C288.432 62.0954 283.842 61.2058 281.37 61.3965C280.381 65.5909 278.996 73.9796 281.37 73.9796H281.37C284.337 73.9796 289.273 73.9796 288.787 67.1162Z" fill="#8D33FF"/>
<path d="M282.004 61.8609C282.004 61.0575 281.353 60.4062 280.549 60.4062C279.746 60.4062 279.095 61.0575 279.095 61.8609V73.4979C279.095 74.3013 279.746 74.9525 280.549 74.9525C281.353 74.9525 282.004 74.3013 282.004 73.4979V61.8609Z" fill="#5800C8"/>
<path d="M285.182 41.2285L298.571 23.6247L307.946 30.7096C311.92 33.7125 312.699 39.3578 309.686 43.3187L307.207 46.5787C304.194 50.5396 298.531 51.3163 294.557 48.3134L285.182 41.2285Z" fill="#FF8833"/>
<path d="M282.386 42.1962C281.904 41.8322 281.81 41.1479 282.175 40.6678L297.217 20.8906C297.582 20.4105 298.268 20.3164 298.75 20.6804L299.186 21.0099C299.668 21.3739 299.762 22.0582 299.397 22.5383L284.355 42.3154C283.99 42.7955 283.304 42.8897 282.822 42.5257L282.386 42.1962Z" fill="#FF8833"/>
<path d="M308.864 54.3329C308.383 53.9689 308.288 53.2846 308.653 52.8045L316.092 43.0246C316.457 42.5445 317.143 42.4503 317.625 42.8143L318.933 43.8029L310.173 55.3215L308.864 54.3329Z" fill="#FF8833"/>
<path d="M309.722 57.7196C309.24 57.3556 309.146 56.6713 309.511 56.1912L319.759 42.7167C320.124 42.2366 320.811 42.1424 321.292 42.5064L323.473 44.1541C323.954 44.5181 324.049 45.2023 323.684 45.6825L313.435 59.157C313.07 59.6371 312.384 59.7312 311.902 59.3672L309.722 57.7196Z" fill="#8D33FF"/>
<path d="M300.23 41.3066L302.875 37.8293L314.867 46.8914L312.222 50.3687L300.23 41.3066Z" fill="#FF8833"/>
<path fill-rule="evenodd" clip-rule="evenodd" d="M284.08 49.7974C282.868 48.8095 282.91 47.1521 283.714 46.0947L286.908 41.8947C287.319 41.3546 288.092 41.2487 288.633 41.6582C289.175 42.0676 289.281 42.8375 288.871 43.3776L285.676 47.5776C285.613 47.6614 285.594 47.7488 285.598 47.8081C285.601 47.8581 285.617 47.8798 285.639 47.8976C286.875 48.9056 288.58 49.7238 290.416 49.6223C292.193 49.5241 294.363 48.5486 296.564 45.434C296.955 44.8798 297.723 44.7468 298.279 45.137C298.835 45.5272 298.968 46.2928 298.577 46.8471C296.057 50.4153 293.258 51.9235 290.552 52.0731C287.906 52.2194 285.615 51.0495 284.08 49.7974Z" fill="#FF8833"/>
<path fill-rule="evenodd" clip-rule="evenodd" d="M306.549 20.2517C305.268 19.3558 303.678 19.843 302.874 20.9004L299.679 25.1004C299.269 25.6405 299.375 26.4104 299.917 26.8198C300.459 27.2293 301.231 27.1234 301.642 26.5833L304.836 22.3832C304.9 22.2995 304.979 22.2581 305.038 22.2459C305.087 22.2357 305.112 22.245 305.135 22.2612C306.443 23.1754 307.693 24.5902 308.091 26.38C308.476 28.1119 308.12 30.4586 305.706 33.4112C305.276 33.9366 305.355 34.7097 305.882 35.1379C306.409 35.5662 307.185 35.4874 307.614 34.9621C310.38 31.5795 311.081 28.486 310.495 25.849C309.922 23.27 308.173 21.3872 306.549 20.2517Z" fill="#FF8833"/>
</g>
<path d="M190.749 173V158.455H193.824V164.868H194.016L199.25 158.455H202.936L197.538 164.967L203 173H199.321L195.337 167.02L193.824 168.866V173H190.749ZM208.652 173.213C207.529 173.213 206.564 172.986 205.754 172.531C204.949 172.072 204.329 171.423 203.893 170.585C203.458 169.742 203.24 168.746 203.24 167.595C203.24 166.473 203.458 165.488 203.893 164.641C204.329 163.793 204.942 163.133 205.733 162.659C206.528 162.186 207.461 161.949 208.531 161.949C209.251 161.949 209.921 162.065 210.541 162.297C211.166 162.524 211.71 162.867 212.174 163.327C212.643 163.786 213.008 164.364 213.268 165.06C213.529 165.751 213.659 166.561 213.659 167.489V168.32H204.447V166.445H210.811C210.811 166.009 210.716 165.623 210.527 165.287C210.337 164.951 210.074 164.688 209.738 164.499C209.407 164.304 209.021 164.207 208.581 164.207C208.121 164.207 207.714 164.314 207.359 164.527C207.009 164.735 206.734 165.017 206.535 165.372C206.336 165.723 206.234 166.113 206.23 166.544V168.327C206.23 168.866 206.329 169.333 206.528 169.726C206.732 170.119 207.018 170.422 207.387 170.635C207.757 170.848 208.195 170.955 208.701 170.955C209.038 170.955 209.345 170.907 209.625 170.812C209.904 170.718 210.143 170.576 210.342 170.386C210.541 170.197 210.692 169.965 210.797 169.69L213.595 169.875C213.453 170.547 213.162 171.134 212.721 171.636C212.286 172.134 211.722 172.522 211.031 172.801C210.344 173.076 209.551 173.213 208.652 173.213ZM217.189 177.091C216.805 177.091 216.445 177.06 216.109 176.999C215.778 176.942 215.503 176.868 215.285 176.778L215.967 174.52C216.322 174.629 216.642 174.688 216.926 174.697C217.215 174.707 217.463 174.641 217.672 174.499C217.885 174.357 218.057 174.115 218.19 173.774L218.368 173.312L214.454 162.091H217.636L219.895 170.102H220.008L222.288 162.091H225.491L221.251 174.179C221.047 174.766 220.77 175.277 220.42 175.713C220.074 176.153 219.636 176.492 219.106 176.729C218.576 176.97 217.937 177.091 217.189 177.091ZM231.668 173V162.091H234.694V173H231.668ZM233.188 160.685C232.738 160.685 232.353 160.536 232.031 160.237C231.713 159.934 231.555 159.572 231.555 159.151C231.555 158.734 231.713 158.376 232.031 158.078C232.353 157.775 232.738 157.624 233.188 157.624C233.638 157.624 234.022 157.775 234.339 158.078C234.661 158.376 234.822 158.734 234.822 159.151C234.822 159.572 234.661 159.934 234.339 160.237C234.022 160.536 233.638 160.685 233.188 160.685ZM240.143 166.693V173H237.118V162.091H240.001V164.016H240.129C240.37 163.381 240.775 162.879 241.343 162.51C241.912 162.136 242.6 161.949 243.41 161.949C244.168 161.949 244.828 162.115 245.392 162.446C245.955 162.777 246.393 163.251 246.706 163.866C247.018 164.477 247.174 165.206 247.174 166.054V173H244.149V166.594C244.154 165.926 243.983 165.405 243.637 165.031C243.292 164.652 242.816 164.463 242.21 164.463C241.803 164.463 241.443 164.551 241.13 164.726C240.823 164.901 240.581 165.157 240.406 165.493C240.235 165.824 240.148 166.224 240.143 166.693ZM258.636 165.202L255.866 165.372C255.818 165.135 255.717 164.922 255.56 164.733C255.404 164.539 255.198 164.385 254.942 164.271C254.692 164.153 254.391 164.094 254.04 164.094C253.572 164.094 253.176 164.193 252.854 164.392C252.532 164.586 252.371 164.847 252.371 165.173C252.371 165.434 252.476 165.654 252.684 165.834C252.892 166.014 253.25 166.158 253.756 166.267L255.731 166.665C256.791 166.883 257.582 167.233 258.103 167.716C258.624 168.199 258.884 168.833 258.884 169.619C258.884 170.334 258.674 170.962 258.252 171.501C257.835 172.041 257.263 172.463 256.533 172.766C255.809 173.064 254.973 173.213 254.026 173.213C252.582 173.213 251.432 172.912 250.575 172.311C249.722 171.705 249.223 170.881 249.076 169.839L252.052 169.683C252.142 170.124 252.36 170.46 252.705 170.692C253.051 170.919 253.494 171.033 254.033 171.033C254.564 171.033 254.99 170.931 255.312 170.727C255.638 170.519 255.804 170.251 255.809 169.925C255.804 169.65 255.688 169.425 255.461 169.25C255.234 169.07 254.883 168.933 254.41 168.838L252.521 168.462C251.455 168.249 250.662 167.879 250.141 167.354C249.625 166.828 249.367 166.158 249.367 165.344C249.367 164.643 249.557 164.039 249.935 163.533C250.319 163.026 250.856 162.635 251.548 162.361C252.244 162.086 253.058 161.949 253.991 161.949C255.369 161.949 256.453 162.24 257.244 162.822C258.039 163.405 258.503 164.198 258.636 165.202ZM260.789 173V162.091H263.815V173H260.789ZM262.309 160.685C261.859 160.685 261.474 160.536 261.152 160.237C260.834 159.934 260.676 159.572 260.676 159.151C260.676 158.734 260.834 158.376 261.152 158.078C261.474 157.775 261.859 157.624 262.309 157.624C262.759 157.624 263.143 157.775 263.46 158.078C263.782 158.376 263.943 158.734 263.943 159.151C263.943 159.572 263.782 159.934 263.46 160.237C263.143 160.536 262.759 160.685 262.309 160.685ZM271.153 177.318C270.173 177.318 269.333 177.183 268.632 176.913C267.936 176.648 267.382 176.286 266.97 175.827C266.558 175.367 266.291 174.851 266.168 174.278L268.966 173.902C269.051 174.12 269.186 174.323 269.371 174.513C269.555 174.702 269.799 174.854 270.102 174.967C270.41 175.086 270.784 175.145 271.224 175.145C271.883 175.145 272.425 174.984 272.851 174.662C273.282 174.345 273.497 173.812 273.497 173.064V171.068H273.369C273.237 171.371 273.038 171.658 272.773 171.928C272.508 172.197 272.167 172.418 271.75 172.588C271.333 172.759 270.836 172.844 270.259 172.844C269.439 172.844 268.694 172.654 268.021 172.276C267.354 171.892 266.821 171.307 266.423 170.521C266.03 169.731 265.834 168.732 265.834 167.524C265.834 166.288 266.035 165.256 266.438 164.428C266.84 163.599 267.375 162.979 268.043 162.567C268.715 162.155 269.451 161.949 270.251 161.949C270.862 161.949 271.374 162.053 271.786 162.261C272.197 162.465 272.529 162.721 272.78 163.028C273.036 163.331 273.232 163.63 273.369 163.923H273.483V162.091H276.487V173.107C276.487 174.035 276.26 174.811 275.805 175.436C275.351 176.061 274.721 176.53 273.916 176.842C273.116 177.16 272.195 177.318 271.153 177.318ZM271.217 170.571C271.705 170.571 272.117 170.45 272.453 170.209C272.794 169.963 273.054 169.612 273.234 169.158C273.419 168.698 273.511 168.149 273.511 167.51C273.511 166.871 273.421 166.317 273.241 165.848C273.062 165.375 272.801 165.008 272.46 164.747C272.119 164.487 271.705 164.357 271.217 164.357C270.72 164.357 270.301 164.491 269.96 164.761C269.619 165.027 269.361 165.396 269.186 165.869C269.011 166.343 268.923 166.89 268.923 167.51C268.923 168.14 269.011 168.684 269.186 169.143C269.366 169.598 269.624 169.951 269.96 170.202C270.301 170.448 270.72 170.571 271.217 170.571ZM281.92 166.693V173H278.895V158.455H281.835V164.016H281.963C282.209 163.372 282.607 162.867 283.156 162.503C283.705 162.134 284.394 161.949 285.223 161.949C285.981 161.949 286.641 162.115 287.205 162.446C287.773 162.773 288.213 163.244 288.526 163.859C288.843 164.47 288.999 165.202 288.994 166.054V173H285.969V166.594C285.973 165.921 285.803 165.398 285.457 165.024C285.116 164.65 284.638 164.463 284.023 164.463C283.611 164.463 283.246 164.551 282.929 164.726C282.616 164.901 282.37 165.157 282.19 165.493C282.015 165.824 281.925 166.224 281.92 166.693ZM297.178 162.091V164.364H290.608V162.091H297.178ZM292.1 159.477H295.125V169.648C295.125 169.927 295.168 170.145 295.253 170.301C295.338 170.453 295.457 170.559 295.608 170.621C295.765 170.682 295.944 170.713 296.148 170.713C296.29 170.713 296.432 170.701 296.574 170.678C296.716 170.649 296.825 170.628 296.901 170.614L297.377 172.865C297.225 172.912 297.012 172.967 296.738 173.028C296.463 173.095 296.129 173.135 295.736 173.149C295.007 173.178 294.368 173.08 293.819 172.858C293.274 172.635 292.85 172.29 292.547 171.821C292.244 171.352 292.095 170.76 292.1 170.045V159.477ZM308.069 165.202L305.299 165.372C305.252 165.135 305.15 164.922 304.994 164.733C304.838 164.539 304.632 164.385 304.376 164.271C304.125 164.153 303.824 164.094 303.474 164.094C303.005 164.094 302.61 164.193 302.288 164.392C301.966 164.586 301.805 164.847 301.805 165.173C301.805 165.434 301.909 165.654 302.118 165.834C302.326 166.014 302.683 166.158 303.19 166.267L305.164 166.665C306.225 166.883 307.016 167.233 307.537 167.716C308.057 168.199 308.318 168.833 308.318 169.619C308.318 170.334 308.107 170.962 307.686 171.501C307.269 172.041 306.696 172.463 305.967 172.766C305.243 173.064 304.407 173.213 303.46 173.213C302.016 173.213 300.865 172.912 300.008 172.311C299.156 171.705 298.656 170.881 298.51 169.839L301.485 169.683C301.575 170.124 301.793 170.46 302.139 170.692C302.484 170.919 302.927 171.033 303.467 171.033C303.997 171.033 304.423 170.931 304.745 170.727C305.072 170.519 305.238 170.251 305.243 169.925C305.238 169.65 305.122 169.425 304.895 169.25C304.667 169.07 304.317 168.933 303.843 168.838L301.954 168.462C300.889 168.249 300.096 167.879 299.575 167.354C299.059 166.828 298.801 166.158 298.801 165.344C298.801 164.643 298.99 164.039 299.369 163.533C299.752 163.026 300.29 162.635 300.981 162.361C301.677 162.086 302.492 161.949 303.424 161.949C304.802 161.949 305.886 162.24 306.677 162.822C307.473 163.405 307.937 164.198 308.069 165.202Z" fill="black"/>
<path d="M203.835 186.364V198H202.425V187.841H202.357L199.516 189.727V188.295L202.425 186.364H203.835ZM210.817 198.159C210.151 198.159 209.55 198.027 209.016 197.761C208.482 197.496 208.054 197.133 207.732 196.67C207.41 196.208 207.234 195.682 207.204 195.091H208.567C208.621 195.617 208.859 196.053 209.283 196.398C209.711 196.739 210.223 196.909 210.817 196.909C211.295 196.909 211.719 196.797 212.09 196.574C212.465 196.35 212.759 196.044 212.971 195.653C213.187 195.259 213.295 194.814 213.295 194.318C213.295 193.811 213.183 193.358 212.96 192.96C212.74 192.559 212.437 192.242 212.05 192.011C211.664 191.78 211.223 191.663 210.727 191.659C210.371 191.655 210.005 191.71 209.63 191.824C209.255 191.934 208.946 192.076 208.704 192.25L207.386 192.091L208.09 186.364H214.136V187.614H209.272L208.863 191.045H208.931C209.17 190.856 209.469 190.699 209.829 190.574C210.189 190.449 210.564 190.386 210.954 190.386C211.666 190.386 212.3 190.557 212.857 190.898C213.418 191.235 213.857 191.697 214.175 192.284C214.497 192.871 214.658 193.542 214.658 194.295C214.658 195.038 214.492 195.701 214.158 196.284C213.829 196.864 213.374 197.322 212.795 197.659C212.215 197.992 211.556 198.159 210.817 198.159ZM221.438 198V189.273H222.734V190.636H222.847C223.029 190.17 223.323 189.809 223.728 189.551C224.133 189.29 224.62 189.159 225.188 189.159C225.764 189.159 226.243 189.29 226.626 189.551C227.012 189.809 227.313 190.17 227.529 190.636H227.62C227.844 190.186 228.179 189.828 228.626 189.562C229.073 189.294 229.609 189.159 230.234 189.159C231.014 189.159 231.652 189.403 232.148 189.892C232.645 190.377 232.893 191.133 232.893 192.159V198H231.552V192.159C231.552 191.515 231.376 191.055 231.023 190.778C230.671 190.502 230.256 190.364 229.779 190.364C229.165 190.364 228.69 190.549 228.353 190.92C228.016 191.288 227.847 191.754 227.847 192.318V198H226.484V192.023C226.484 191.527 226.323 191.127 226.001 190.824C225.679 190.517 225.264 190.364 224.756 190.364C224.408 190.364 224.082 190.456 223.779 190.642C223.48 190.828 223.237 191.085 223.052 191.415C222.87 191.741 222.779 192.117 222.779 192.545V198H221.438ZM235.344 198V189.273H236.685V198H235.344ZM236.026 187.818C235.765 187.818 235.54 187.729 235.35 187.551C235.165 187.373 235.072 187.159 235.072 186.909C235.072 186.659 235.165 186.445 235.35 186.267C235.54 186.089 235.765 186 236.026 186C236.288 186 236.511 186.089 236.697 186.267C236.886 186.445 236.981 186.659 236.981 186.909C236.981 187.159 236.886 187.373 236.697 187.551C236.511 187.729 236.288 187.818 236.026 187.818ZM240.482 192.75V198H239.141V189.273H240.437V190.636H240.55C240.755 190.193 241.066 189.837 241.482 189.568C241.899 189.295 242.437 189.159 243.096 189.159C243.687 189.159 244.204 189.28 244.647 189.523C245.09 189.761 245.435 190.125 245.681 190.614C245.927 191.098 246.05 191.712 246.05 192.455V198H244.71V192.545C244.71 191.86 244.531 191.326 244.175 190.943C243.819 190.557 243.331 190.364 242.71 190.364C242.281 190.364 241.899 190.456 241.562 190.642C241.228 190.828 240.965 191.098 240.772 191.455C240.579 191.811 240.482 192.242 240.482 192.75ZM254.001 194.432V189.273H255.342V198H254.001V196.523H253.91C253.705 196.966 253.387 197.343 252.955 197.653C252.523 197.96 251.978 198.114 251.319 198.114C250.773 198.114 250.289 197.994 249.864 197.756C249.44 197.513 249.107 197.15 248.864 196.665C248.622 196.176 248.501 195.561 248.501 194.818V189.273H249.842V194.727C249.842 195.364 250.02 195.871 250.376 196.25C250.736 196.629 251.194 196.818 251.751 196.818C252.084 196.818 252.423 196.733 252.768 196.562C253.116 196.392 253.408 196.131 253.643 195.778C253.881 195.426 254.001 194.977 254.001 194.432ZM261.593 189.273V190.409H257.07V189.273H261.593ZM258.388 187.182H259.729V195.5C259.729 195.879 259.784 196.163 259.894 196.352C260.008 196.538 260.152 196.663 260.326 196.727C260.504 196.788 260.692 196.818 260.888 196.818C261.036 196.818 261.157 196.811 261.252 196.795C261.347 196.777 261.423 196.761 261.479 196.75L261.752 197.955C261.661 197.989 261.534 198.023 261.371 198.057C261.209 198.095 261.002 198.114 260.752 198.114C260.373 198.114 260.002 198.032 259.638 197.869C259.279 197.706 258.979 197.458 258.741 197.125C258.506 196.792 258.388 196.371 258.388 195.864V187.182ZM267.175 198.182C266.335 198.182 265.609 197.996 264.999 197.625C264.393 197.25 263.925 196.727 263.596 196.057C263.27 195.383 263.107 194.598 263.107 193.705C263.107 192.811 263.27 192.023 263.596 191.341C263.925 190.655 264.384 190.121 264.971 189.739C265.562 189.352 266.251 189.159 267.039 189.159C267.494 189.159 267.942 189.235 268.386 189.386C268.829 189.538 269.232 189.784 269.596 190.125C269.96 190.462 270.249 190.909 270.465 191.466C270.681 192.023 270.789 192.708 270.789 193.523V194.091H264.062V192.932H269.425C269.425 192.439 269.327 192 269.13 191.614C268.937 191.227 268.66 190.922 268.3 190.699C267.944 190.475 267.524 190.364 267.039 190.364C266.505 190.364 266.043 190.496 265.653 190.761C265.266 191.023 264.969 191.364 264.761 191.784C264.552 192.205 264.448 192.655 264.448 193.136V193.909C264.448 194.568 264.562 195.127 264.789 195.585C265.02 196.04 265.34 196.386 265.749 196.625C266.158 196.86 266.634 196.977 267.175 196.977C267.528 196.977 267.846 196.928 268.13 196.83C268.418 196.727 268.666 196.576 268.874 196.375C269.083 196.17 269.244 195.917 269.357 195.614L270.653 195.977C270.516 196.417 270.287 196.803 269.965 197.136C269.643 197.466 269.246 197.723 268.772 197.909C268.299 198.091 267.766 198.182 267.175 198.182ZM279.011 191.227L277.806 191.568C277.73 191.367 277.619 191.172 277.471 190.983C277.327 190.79 277.13 190.631 276.88 190.506C276.63 190.381 276.31 190.318 275.92 190.318C275.386 190.318 274.941 190.441 274.585 190.688C274.232 190.93 274.056 191.239 274.056 191.614C274.056 191.947 274.177 192.21 274.42 192.403C274.662 192.597 275.041 192.758 275.556 192.886L276.852 193.205C277.632 193.394 278.213 193.684 278.596 194.074C278.978 194.46 279.17 194.958 279.17 195.568C279.17 196.068 279.026 196.515 278.738 196.909C278.454 197.303 278.056 197.614 277.545 197.841C277.033 198.068 276.439 198.182 275.761 198.182C274.871 198.182 274.134 197.989 273.55 197.602C272.967 197.216 272.598 196.652 272.442 195.909L273.715 195.591C273.836 196.061 274.066 196.413 274.403 196.648C274.744 196.883 275.189 197 275.738 197C276.363 197 276.859 196.867 277.227 196.602C277.598 196.333 277.783 196.011 277.783 195.636C277.783 195.333 277.677 195.08 277.465 194.875C277.253 194.667 276.927 194.511 276.488 194.409L275.033 194.068C274.234 193.879 273.647 193.585 273.272 193.188C272.901 192.786 272.715 192.284 272.715 191.682C272.715 191.189 272.853 190.754 273.13 190.375C273.41 189.996 273.791 189.699 274.272 189.483C274.757 189.267 275.306 189.159 275.92 189.159C276.783 189.159 277.461 189.348 277.954 189.727C278.45 190.106 278.802 190.606 279.011 191.227Z" fill="black"/>
<path fill-rule="evenodd" clip-rule="evenodd" d="M291.83 184.03C292.164 183.595 292.854 183.939 292.708 184.468L291.084 190.333H295.068C295.483 190.333 295.718 190.809 295.465 191.138L288.671 199.969C288.336 200.404 287.647 200.06 287.793 199.531L289.417 193.666H285.433C285.018 193.666 284.783 193.19 285.036 192.861L291.83 184.03Z" fill="#0066FF"/>
</g>
<defs>
<clipPath id="clip0_286_10617">
<rect width="327" height="216" fill="white"/>
</clipPath>
<clipPath id="clip1_286_10617">
<rect width="155.5" height="140" fill="white" transform="translate(171.5 12)"/>
</clipPath>
</defs>
</svg>
